<svg width="32" height="32" viewBox="0 0 32 32" fill="none" xmlns="http://www.w3.org/2000/svg">
<path d="M16 32C24.8366 32 32 24.8366 32 16C32 7.16344 24.8366 0 16 0C7.16344 0 0 7.16344 0 16C0 24.8366 7.16344 32 16 32Z" fill="#4C68EF"/>
<path d="M8.58012 9.14453H23.4161C23.6597 9.14453 23.8878 9.20447 24.0941 9.30323L17.7699 15.627L15.9629 17.3637L7.90234 9.30309C8.10861 9.2044 8.33659 9.14453 8.58012 9.14453Z" fill="white"/>
<path d="M18.8906 16.0001L24.842 10.049C24.9406 10.2552 25.0003 10.4832 25.0003 10.7265V21.2734C25.0003 21.5169 24.9405 21.7449 24.8418 21.9512L18.8906 16.0001Z" fill="white"/>
<path d="M7.15855 10.0488C7.05987 10.2551 7 10.483 7 10.7266V21.2734C7 21.5168 7.0598 21.7449 7.15841 21.9511L13.1098 16L7.15855 10.0488Z" fill="white"/>
<path d="M16.34 18.4822L18.1468 16.7458L24.098 22.6969C23.8917 22.7956 23.6637 22.8555 23.4202 22.8555H8.58427C8.34068 22.8555 8.11255 22.7955 7.90625 22.6968L13.8577 16.7457L15.5943 18.4822C15.6973 18.5852 15.8322 18.6368 15.9671 18.6368C16.102 18.6368 16.2369 18.5852 16.34 18.4822Z" fill="white"/>
</svg>
