<svg width="157" height="125" viewBox="0 0 157 125" fill="none" xmlns="http://www.w3.org/2000/svg">
<path d="M13.6105 118.214C13.6105 118.214 26.1612 82.6533 66.7419 82.6533C101.466 82.6533 113.18 109.01 113.18 109.01" stroke="#E5E9FF" stroke-width="2"/>
<path d="M96.5647 99.4938C98.0102 96.9601 100.473 94.5803 103.958 92.5743C115.866 85.72 135.352 85.72 147.26 92.5743C150.745 94.5803 153.209 96.9601 154.653 99.4938H156.191V105.036C156.191 109.555 153.214 114.072 147.26 117.499C135.352 124.353 115.866 124.353 103.958 117.499C98.0046 114.072 95.0275 109.555 95.0275 105.036V99.4938H96.5647Z" fill="#EAEDFF"/>
<path d="M125.611 117.534C108.7 117.534 94.9908 109.643 94.9908 99.9097C94.9908 90.1759 108.7 82.2852 125.611 82.2852C142.522 82.2852 156.23 90.1759 156.23 99.9097C156.23 109.643 142.522 117.534 125.611 117.534Z" fill="#F8F9FF"/>
<path d="M115.678 0.654357C130.919 0.748094 153.09 23.1316 153.09 51.0044C153.09 68.9269 145.095 93.8226 136.205 99.4356C135.908 99.623 126.084 102.474 125.748 102.537C124.061 102.852 131.79 97.5636 129.965 96.4688C117.278 88.8479 101.609 42.2109 101.609 21.2737C101.609 12.3499 96.1856 10.0899 99.7756 6.99005C102.061 5.01782 112.573 0.635609 115.678 0.654357Z" fill="url(#paint0_linear_1799_2148)"/>
<path d="M106.213 5.51688C121.456 5.61062 143.625 27.9951 143.625 55.8669C143.625 77.4021 133.55 109.171 120.503 101.329C107.816 93.7086 92.1465 47.0715 92.1465 26.1344C92.1465 11.5367 98.2291 5.46908 106.213 5.51688Z" fill="url(#paint1_linear_1799_2148)"/>
<path d="M111.598 20.0255C119.264 20.0724 130.414 31.3302 130.414 45.3486C130.414 66.7095 104.523 51.7565 104.523 30.3957C104.523 23.0532 107.583 20.0012 111.598 20.0255Z" fill="white"/>
<path fill-rule="evenodd" clip-rule="evenodd" d="M125.555 55.3738C116.555 53.9645 108.19 35.106 116.132 23.6501C116.593 22.9858 117.067 22.4056 117.553 21.9044C115.5 20.7029 113.444 20.0369 111.591 20.0255C107.576 20.0012 104.516 23.0532 104.516 30.3957C104.516 45.8443 118.058 57.9413 125.555 55.3738Z" fill="#D5DCFF"/>
<path d="M3.77164 117.292C4.22123 116.504 4.9872 115.764 6.07102 115.14C9.77468 113.008 15.835 113.008 19.5387 115.14C20.6225 115.764 21.3887 116.504 21.838 117.292H22.3164V119.016C22.3164 120.421 21.3905 121.826 19.5387 122.892C15.835 125.023 9.77468 125.023 6.07102 122.892C4.21948 121.826 3.29357 120.421 3.29357 119.016V117.292H3.77164Z" fill="#EAEDFF"/>
<path d="M12.8049 122.902C7.54541 122.902 3.28173 120.448 3.28173 117.421C3.28173 114.394 7.54541 111.939 12.8049 111.939C18.0644 111.939 22.3281 114.394 22.3281 117.421C22.3281 120.448 18.0644 122.902 12.8049 122.902Z" fill="#F8F9FF"/>
<path d="M8.72665 80.5176C14.279 80.5517 22.3555 88.7058 22.3555 98.8596C22.3555 105.389 19.4429 114.458 16.2043 116.503C16.0965 116.571 12.5176 117.609 12.395 117.633C11.7805 117.747 14.5961 115.821 13.9312 115.422C9.30971 112.646 3.60133 95.6562 3.60133 88.029C3.60133 84.7782 1.62583 83.9549 2.93362 82.8256C3.76622 82.1072 7.59569 80.5108 8.72665 80.5176Z" fill="url(#paint2_linear_1799_2148)"/>
<path d="M5.27743 82.2892C10.8301 82.3233 18.9062 90.4777 18.9062 100.631C18.9062 108.476 15.2362 120.049 10.483 117.193C5.86151 114.417 0.153137 97.4271 0.153137 89.7999C0.153137 84.4821 2.36897 82.2717 5.27743 82.2892Z" fill="url(#paint3_linear_1799_2148)"/>
<path d="M7.24331 87.5743C10.0357 87.5913 14.0977 91.6925 14.0977 96.7992C14.0977 104.581 4.66597 99.1335 4.66597 91.352C4.66597 88.6772 5.78054 87.5654 7.24331 87.5743Z" fill="white"/>
<path fill-rule="evenodd" clip-rule="evenodd" d="M12.3242 100.45C9.04557 99.9372 5.99742 93.0667 8.8911 88.8932C9.05871 88.6515 9.23136 88.4403 9.40794 88.2578C8.66003 87.8201 7.91103 87.5774 7.23617 87.5733C5.7734 87.5644 4.65883 88.6763 4.65883 91.351C4.65883 96.9797 9.59366 101.387 12.3242 100.45Z" fill="#D5DCFF"/>
<path d="M47.875 120.658L44.9373 118.961V112.174L47.875 113.87V120.658Z" fill="url(#paint4_linear_1799_2148)"/>
<path d="M33.1882 112.175V122.352L47.8788 113.868V120.655L59.6289 100.297L47.876 96.9023V103.69L33.1882 112.175Z" fill="#E5E9FF"/>
<path d="M30.2488 110.477L33.1875 112.173V122.35L30.2488 120.654V110.477Z" fill="url(#paint5_linear_1799_2148)"/>
<path d="M47.875 103.689L44.9373 101.992L30.2457 110.477L33.1844 112.174L47.875 103.689Z" fill="url(#paint6_linear_1799_2148)"/>
<path d="M44.9373 95.2051L47.875 96.9017V103.689L44.9373 101.993V95.2051Z" fill="url(#paint7_linear_1799_2148)"/>
<path d="M59.6289 100.296L56.6912 98.5993L44.9383 95.2051L47.876 96.9017L59.6289 100.296Z" fill="url(#paint8_linear_1799_2148)"/>
<defs>
<linearGradient id="paint0_linear_1799_2148" x1="152.597" y1="93.3533" x2="86.8916" y2="21.2665" gradientUnits="userSpaceOnUse">
<stop stop-color="#CBD3FF"/>
<stop offset="1" stop-color="white"/>
</linearGradient>
<linearGradient id="paint1_linear_1799_2148" x1="123.477" y1="100.271" x2="105.474" y2="8.40858" gradientUnits="userSpaceOnUse">
<stop stop-color="#7A8EE9"/>
<stop offset="1" stop-color="#A7B5F2"/>
</linearGradient>
<linearGradient id="paint2_linear_1799_2148" x1="22.1759" y1="114.287" x2="-1.7599" y2="88.0264" gradientUnits="userSpaceOnUse">
<stop stop-color="#CBD3FF"/>
<stop offset="1" stop-color="white"/>
</linearGradient>
<linearGradient id="paint3_linear_1799_2148" x1="11.5664" y1="116.807" x2="5.00838" y2="83.3426" gradientUnits="userSpaceOnUse">
<stop stop-color="#7A8EE9"/>
<stop offset="1" stop-color="#A7B5F2"/>
</linearGradient>
<linearGradient id="paint4_linear_1799_2148" x1="-19847.1" y1="-66673.7" x2="-19749.4" y2="-66673.7" gradientUnits="userSpaceOnUse">
<stop stop-color="#F6ECFF"/>
<stop offset="1" stop-color="#CDD3F7"/>
</linearGradient>
<linearGradient id="paint5_linear_1799_2148" x1="-20194.9" y1="-93321.5" x2="-20096.9" y2="-93321.5" gradientUnits="userSpaceOnUse">
<stop stop-color="#F6ECFF"/>
<stop offset="1" stop-color="#CDD3F7"/>
</linearGradient>
<linearGradient id="paint6_linear_1799_2148" x1="-132852" y1="-80957.5" x2="-129467" y2="-80957.5" gradientUnits="userSpaceOnUse">
<stop stop-color="#F6ECFF"/>
<stop offset="1" stop-color="#CDD3F7"/>
</linearGradient>
<linearGradient id="paint7_linear_1799_2148" x1="-19812" y1="-68134.7" x2="-19603.9" y2="-68019.6" gradientUnits="userSpaceOnUse">
<stop stop-color="#F6ECFF"/>
<stop offset="1" stop-color="#CDD3F7"/>
</linearGradient>
<linearGradient id="paint8_linear_1799_2148" x1="-108113" y1="-40858.3" x2="-105795" y2="-40858.3" gradientUnits="userSpaceOnUse">
<stop stop-color="#F6ECFF"/>
<stop offset="1" stop-color="#CDD3F7"/>
</linearGradient>
</defs>
</svg>
