<svg width="83" height="93" viewBox="0 0 83 93" fill="none" xmlns="http://www.w3.org/2000/svg">
<path d="M80.0915 61.7548C78.1536 58.3723 74.8518 55.1952 70.1798 52.5172C54.2148 43.3667 28.0911 43.3667 12.1261 52.5172C7.45418 55.1952 4.15112 58.3723 2.21441 61.7548H0.152344V69.1543C0.152344 75.1862 4.1436 81.2168 12.1261 85.7914C28.0911 94.9419 54.2148 94.9419 70.1798 85.7914C78.1611 81.2168 82.1523 75.1862 82.1523 69.1543V61.7548H80.0915Z" fill="#EAEDFF"/>
<rect x="0.152344" y="0.654297" width="82" height="62" fill="url(#paint0_linear_1799_2257)" fill-opacity="0.4"/>
<path d="M41.1523 85.6543C63.796 85.6543 82.1523 75.133 82.1523 62.1543C82.1523 49.1756 63.796 38.6543 41.1523 38.6543C18.5087 38.6543 0.152344 49.1756 0.152344 62.1543C0.152344 75.133 18.5087 85.6543 41.1523 85.6543Z" fill="#F8F9FF"/>
<path d="M56.7871 59.3291C58.7756 60.477 59.7935 61.8983 59.8408 63.5928C59.8882 65.26 58.8229 66.9956 56.6451 68.7995L60.5865 71.0748L55.5799 73.9651L51.816 71.7923C49.946 72.7625 47.9694 73.5893 45.8862 74.2726C43.8268 74.9422 41.933 75.3932 40.205 75.6255L36.7962 70.5418C38.6663 70.2549 40.5482 69.8107 42.442 69.2094C44.3121 68.5945 45.9217 67.8975 47.271 67.1186C48.431 66.449 49.153 65.9092 49.437 65.4992C49.6974 65.0755 49.6027 64.7339 49.153 64.4743C48.6322 64.1736 47.9102 64.1394 46.987 64.3718C46.0875 64.5904 44.7382 65.0414 42.9391 65.7247C40.6192 66.5993 38.5953 67.2757 36.8672 67.754C35.1155 68.2187 33.2454 68.4237 31.257 68.369C29.2449 68.3007 27.3393 67.7472 25.5402 66.7086C23.4571 65.506 22.4156 64.0438 22.4156 62.3219C22.4392 60.5863 23.6583 58.7893 26.0729 56.9308L22.2025 54.6964L27.2091 51.8061L31.0085 53.9995C34.1095 52.5099 37.1987 51.5191 40.276 51.0272L43.8268 55.9878C40.1576 56.6848 37.2342 57.6619 35.0563 58.9191C32.9022 60.1627 32.3459 61.0851 33.3875 61.6864C33.8846 61.9734 34.5829 62.0076 35.4824 61.7889C36.3583 61.5566 37.6721 61.0988 39.4238 60.4155C41.6726 59.5272 43.6848 58.844 45.4601 58.3657C47.2119 57.8737 49.0819 57.655 51.0704 57.7097C53.0825 57.7507 54.9881 58.2905 56.7871 59.3291Z" fill="url(#paint1_linear_1799_2257)"/>
<defs>
<linearGradient id="paint0_linear_1799_2257" x1="41.1523" y1="0.654297" x2="41.1523" y2="62.6543" gradientUnits="userSpaceOnUse">
<stop stop-color="#5574FF" stop-opacity="0"/>
<stop offset="1" stop-color="#5574FF" stop-opacity="0.29"/>
</linearGradient>
<linearGradient id="paint1_linear_1799_2257" x1="57.8154" y1="79.3711" x2="47.1735" y2="47.4838" gradientUnits="userSpaceOnUse">
<stop stop-color="#7A8EE9"/>
<stop offset="1" stop-color="#A7B5F2"/>
</linearGradient>
</defs>
</svg>
