<svg width="156" height="83" viewBox="0 0 156 83" fill="none" xmlns="http://www.w3.org/2000/svg">
<path fill-rule="evenodd" clip-rule="evenodd" d="M117.456 30.8966L117.426 41.1934C120.378 41.1934 125.89 39.5291 125.936 35.3073C125.931 31.7899 120.322 30.2125 117.456 30.8966Z" fill="#BCC7F4"/>
<path fill-rule="evenodd" clip-rule="evenodd" d="M120.219 52.3886C109.547 46.8599 108.706 46.1299 98.2178 42.0918L98.1719 57.172L129.275 75.1468L131.376 60.0819L120.219 52.3886Z" fill="url(#paint0_linear_1799_2306)"/>
<path fill-rule="evenodd" clip-rule="evenodd" d="M149.557 44.4864C141.796 48.9993 137.064 55.5592 129.314 60.067L129.273 75.1472C137.024 70.6411 144.779 66.1283 152.54 61.6087C154.069 60.751 155.599 59.1889 155.67 57.3051V57.2081L155.716 42.1279C155.696 44.0729 151.127 43.5675 149.557 44.4864Z" fill="url(#paint1_linear_1799_2306)"/>
<path fill-rule="evenodd" clip-rule="evenodd" d="M102.318 53.4453L102.277 68.5255C102.277 69.6231 102.996 70.7207 104.439 71.5579C106.851 72.9516 110.196 73.0894 112.837 72.3594C114.52 71.8999 116.891 70.7054 116.967 68.6327V68.5664L117.008 53.4862C114.377 54.6501 105.026 54.8288 102.318 53.4453Z" fill="url(#paint2_linear_1799_2306)"/>
<path fill-rule="evenodd" clip-rule="evenodd" d="M152.535 37.6608L129.106 24.1172L117.455 30.8967C119.514 30.8127 121.558 31.276 123.38 32.2393C126.485 34.0362 126.495 36.9512 123.416 38.738C120.336 40.5247 115.314 40.5349 112.198 38.738C110.567 37.7986 109.787 36.5479 109.863 35.3074L98.207 42.092L109.934 48.8765L110.572 49.2441C108.458 49.0458 106.332 49.468 104.453 50.4591C101.593 52.1182 101.598 54.8188 104.479 56.483C107.359 58.1472 112.015 58.1421 114.875 56.483C116.543 55.508 117.226 54.1806 116.915 52.9095L117.552 53.2822L129.279 60.0616L152.551 46.5231C156.783 44.088 156.752 40.101 152.535 37.6608Z" fill="url(#paint3_linear_1799_2306)"/>
<path fill-rule="evenodd" clip-rule="evenodd" d="M58.1523 48.8675L58.1982 33.7107L70.2111 23.7049L89.2349 15.6543L89.1891 30.806L85.1111 33.1789L85.0821 42.7247V42.791C85.0772 42.9332 85.0619 43.0748 85.0363 43.2148C84.6793 45.0628 82.5378 46.0838 80.9572 46.5381C78.2905 47.2886 74.966 47.1303 72.5237 45.7264C71.0756 44.8637 70.3516 43.7661 70.3516 42.6634L70.3549 41.7652L58.1523 48.8675Z" fill="url(#paint4_linear_1799_2306)"/>
<path fill-rule="evenodd" clip-rule="evenodd" d="M69.8773 51.1376L69.9079 40.9684C67.4247 40.4937 61.6273 41.8975 61.5406 45.4149C61.3418 50.4536 66.5885 51.4031 69.8773 51.1376Z" fill="#BCC7F4"/>
<path fill-rule="evenodd" clip-rule="evenodd" d="M77.5838 45.609L77.543 60.7658V60.7352L77.5889 45.5784C77.5838 45.4712 77.5838 45.5426 77.5838 45.609Z" fill="#00507C"/>
<path fill-rule="evenodd" clip-rule="evenodd" d="M54.5758 22.7538C54.5299 17.7407 46.2391 17.3476 43.1747 18.2257C40.9567 18.8587 38.545 20.574 38.652 22.8917L37.668 26.4652L38.6113 37.8545C38.6113 36.4302 39.7789 35.302 40.921 34.6179C43.1798 33.3059 46.3156 33.0251 48.8701 33.4744C50.9658 33.9032 54.3055 35.4755 54.535 37.9106L54.5758 22.7538Z" fill="#7D8DD6"/>
<path fill-rule="evenodd" clip-rule="evenodd" d="M44.1203 37.226C40.3217 35.0258 31.4599 35.5873 30.3789 40.1053L30.4452 55.9308C30.4452 49.8712 46.3893 49.8712 46.3893 55.9564L46.8992 44.8223L46.3893 40.8047C46.3512 40.0629 46.1223 39.3437 45.7247 38.7167C45.3272 38.0896 44.7745 37.5762 44.1203 37.226Z" fill="#657ACE"/>
<path fill-rule="evenodd" clip-rule="evenodd" d="M0.345479 34.1279L0.304688 49.2847C0.304688 50.9081 1.36525 52.5315 3.49657 53.7669L27.0125 67.3718L27.0533 52.2201C22.1584 45.4917 1.5947 38.4059 0.345479 34.1279Z" fill="url(#paint5_linear_1799_2306)"/>
<path fill-rule="evenodd" clip-rule="evenodd" d="M31.0657 40.7744L31.0352 52.0361L39.4177 47.268L39.4228 45.032L31.0657 40.7744Z" fill="#B4CCE5"/>
<path fill-rule="evenodd" clip-rule="evenodd" d="M65.9772 65.8248C61.7757 68.265 54.826 68.2497 50.6143 65.8248L27.0729 52.22L27.0117 67.3716L50.5531 80.9765C54.7648 83.4116 61.7298 83.4218 65.9109 80.9765L89.3044 67.3716L89.3452 52.2148L65.9772 65.8248Z" fill="url(#paint6_linear_1799_2306)"/>
<path fill-rule="evenodd" clip-rule="evenodd" d="M77.5786 45.4007C77.6703 46.6514 76.9004 47.9072 75.2739 48.8516C72.1687 50.6588 67.1157 50.6588 64.0105 48.8516C60.9053 47.0445 60.8696 44.1244 63.9697 42.3172C65.7955 41.3488 67.8455 40.8837 69.9099 40.9695L58.1162 34.1543L46.3889 40.9695L45.7566 41.3422C46.032 40.071 45.3232 38.7437 43.6304 37.7686C40.7393 36.0993 36.0739 36.0993 33.2032 37.7686C30.3326 39.438 30.3377 42.1487 33.2032 43.8232C35.1026 44.8176 37.2491 45.2396 39.3831 45.0382L38.7508 45.4058L27.0234 52.2261L50.5648 65.8309C54.802 68.2813 61.7211 68.2813 65.9277 65.8309L89.3161 52.221L77.5786 45.4007Z" fill="url(#paint7_linear_1799_2306)"/>
<path fill-rule="evenodd" clip-rule="evenodd" d="M82.9867 24.4947C81.0892 23.5002 78.9443 23.0781 76.812 23.2797L89.1563 16.097L65.62 2.4921C61.3777 0.0416948 54.479 0.0416948 50.2623 2.4921L26.8789 16.097L38.6624 22.9071C38.5655 21.6717 39.3303 20.4107 40.967 19.4612C44.0671 17.654 49.1252 17.6642 52.2202 19.4612C55.3152 21.2581 55.3662 24.1884 52.2661 25.9905C50.443 26.966 48.391 27.4315 46.3259 27.3382L58.1145 34.1534L70.4639 26.9707C70.1784 28.2418 70.8871 29.5742 72.5799 30.5442C75.471 32.2186 80.1517 32.2186 83.0224 30.5442C85.893 28.8697 85.8828 26.1692 82.9867 24.4947Z" fill="url(#paint8_linear_1799_2306)"/>
<path fill-rule="evenodd" clip-rule="evenodd" d="M46.3025 27.334L45.6651 26.9665C47.7959 27.17 49.9397 26.7478 51.8347 25.7515C54.7054 24.077 54.685 21.3663 51.7888 19.6969C48.8927 18.0276 44.2374 18.0225 41.3617 19.6969C39.6842 20.672 38.9856 22.0044 39.2762 23.2704L38.6389 22.8978L26.8554 16.0928L3.46699 29.7028C-0.744663 32.1481 -0.729365 36.1555 3.51798 38.611L27.0492 52.2159L38.7766 45.3956C36.7066 45.4896 34.6495 45.0241 32.8211 44.0478C29.6955 42.2458 29.6904 39.3257 32.7905 37.5236C35.8906 35.7216 40.9487 35.7114 44.0488 37.5236C45.6906 38.4732 46.4707 39.7341 46.3891 40.9695L58.1165 34.1543L46.3025 27.334Z" fill="url(#paint9_linear_1799_2306)"/>
<defs>
<linearGradient id="paint0_linear_1799_2306" x1="98.4719" y1="72.1631" x2="115.297" y2="37.5225" gradientUnits="userSpaceOnUse">
<stop stop-color="#CBD3FF"/>
<stop offset="1" stop-color="white"/>
</linearGradient>
<linearGradient id="paint1_linear_1799_2306" x1="129.512" y1="72.1667" x2="148.514" y2="40.9769" gradientUnits="userSpaceOnUse">
<stop stop-color="#CBD3FF"/>
<stop offset="1" stop-color="white"/>
</linearGradient>
<linearGradient id="paint2_linear_1799_2306" x1="102.41" y1="71.048" x2="113.795" y2="53.2831" gradientUnits="userSpaceOnUse">
<stop stop-color="#CBD3FF"/>
<stop offset="1" stop-color="white"/>
</linearGradient>
<linearGradient id="paint3_linear_1799_2306" x1="96.5242" y1="46.0657" x2="127.502" y2="13.6962" gradientUnits="userSpaceOnUse">
<stop stop-color="#7A8EE9"/>
<stop offset="1" stop-color="#A7B5F2"/>
</linearGradient>
<linearGradient id="paint4_linear_1799_2306" x1="58.4332" y1="45.8696" x2="76.067" y2="12.0451" gradientUnits="userSpaceOnUse">
<stop stop-color="#CBD3FF"/>
<stop offset="1" stop-color="white"/>
</linearGradient>
<linearGradient id="paint5_linear_1799_2306" x1="0.54641" y1="64.3711" x2="19.6359" y2="32.889" gradientUnits="userSpaceOnUse">
<stop stop-color="#CBD3FF"/>
<stop offset="1" stop-color="white"/>
</linearGradient>
<linearGradient id="paint6_linear_1799_2306" x1="27.575" y1="80.0453" x2="36.5479" y2="42.5715" gradientUnits="userSpaceOnUse">
<stop stop-color="#CBD3FF"/>
<stop offset="1" stop-color="white"/>
</linearGradient>
<linearGradient id="paint7_linear_1799_2306" x1="27.5864" y1="64.6436" x2="38.246" y2="24.034" gradientUnits="userSpaceOnUse">
<stop stop-color="#CBD3FF"/>
<stop offset="1" stop-color="white"/>
</linearGradient>
<linearGradient id="paint8_linear_1799_2306" x1="27.4417" y1="31.1297" x2="38.0945" y2="-9.46247" gradientUnits="userSpaceOnUse">
<stop stop-color="#CBD3FF"/>
<stop offset="1" stop-color="white"/>
</linearGradient>
<linearGradient id="paint9_linear_1799_2306" x1="-1.37109" y1="38.1504" x2="29.7604" y2="5.61668" gradientUnits="userSpaceOnUse">
<stop stop-color="#7A8EE9"/>
<stop offset="1" stop-color="#A7B5F2"/>
</linearGradient>
</defs>
</svg>
