<svg width="104" height="151" viewBox="0 0 104 151" fill="none" xmlns="http://www.w3.org/2000/svg">
<path d="M102.797 12.769C102.765 5.73279 97.7812 2.86197 91.6711 6.35956L8.4757 53.9828C4.2939 56.3766 0.924617 62.2164 0.946975 67.032L1.27744 138.208C1.29983 143.031 4.71634 145 8.90516 142.602L95.5806 92.9864C99.7624 90.5927 103.132 84.7528 103.109 79.9372L102.797 12.769Z" fill="#E6E9FF"/>
<rect width="113.149" height="88.6302" rx="8.72683" transform="matrix(-0.868382 0.495896 0.00464284 0.999989 102.699 3.62012)" fill="url(#paint0_linear_1799_2273)"/>
<path d="M10.1399 133.055L9.56734 133.385L9.46625 136.297L9.82549 136.089L9.89697 134.03L10.1323 135.912L10.5215 135.687L10.8784 133.435L10.8059 135.523L11.1951 135.299L11.2962 132.387L10.7236 132.718L10.3712 134.947L10.1399 133.055ZM12.5086 131.687L11.9062 132.035L11.386 135.188L11.7639 134.97L11.8534 134.401L12.3585 134.109L12.4113 134.596L12.8267 134.357L12.5086 131.687ZM12.1689 132.389L12.3161 133.746L11.9195 133.975L12.1689 132.389ZM13.7257 130.984L13.1194 131.334L13.0184 134.246L13.43 134.008L13.468 132.914L13.6626 132.802C14.0742 132.564 14.2851 132.194 14.3012 131.728L14.3144 131.35C14.3305 130.884 14.1373 130.747 13.7257 130.984ZM13.7112 131.4C13.8422 131.325 13.911 131.35 13.9038 131.558L13.8886 131.995C13.8814 132.203 13.808 132.31 13.677 132.386L13.4824 132.498L13.5166 131.513L13.7112 131.4Z" fill="#8A98B4"/>
<path d="M23.7057 124.732L23.1033 125.079L22.5831 128.233L22.961 128.015L23.0504 127.445L23.5556 127.154L23.6084 127.641L24.0238 127.401L23.7057 124.732ZM23.366 125.433L23.5132 126.791L23.1166 127.02L23.366 125.433ZM24.7137 124.557L25.1815 124.287L25.0948 126.783L25.5139 126.541L25.615 123.629L24.3165 124.379L24.2154 127.29L24.6271 127.053L24.7137 124.557ZM26.5197 123.107L25.9135 123.457L25.8124 126.368L26.224 126.131L26.262 125.037L26.4566 124.924C26.8682 124.687 27.0791 124.316 27.0953 123.851L27.1084 123.472C27.1246 123.006 26.9313 122.869 26.5197 123.107ZM26.5053 123.523C26.6362 123.447 26.705 123.473 26.6978 123.681L26.6826 124.117C26.6754 124.325 26.602 124.433 26.471 124.509L26.2764 124.621L26.3107 123.635L26.5053 123.523Z" fill="#8A98B4"/>
<path d="M38.4835 115.862L37.911 116.193L37.8099 119.104L38.1692 118.897L38.2406 116.838L38.476 118.719L38.8652 118.495L39.2221 116.243L39.1496 118.331L39.5388 118.106L39.6398 115.195L39.0673 115.525L38.7149 117.754L38.4835 115.862ZM40.8523 114.494L40.2499 114.842L39.7297 117.996L40.1076 117.777L40.197 117.208L40.7022 116.917L40.755 117.404L41.1703 117.164L40.8523 114.494ZM40.5126 115.196L40.6598 116.554L40.2632 116.783L40.5126 115.196ZM41.7849 116.809L41.362 117.053L41.4631 114.142L41.8298 113.93L41.7659 115.773L41.9378 115.046L42.3163 113.649L42.7691 113.388L42.668 116.299L42.2976 116.513L42.3687 114.463L42.1755 115.275L41.7849 116.809ZM42.3314 113.005C42.3148 113.165 42.2499 113.239 42.1376 113.304C42.0291 113.367 41.9743 113.362 41.9684 113.214L41.7139 113.361C41.7116 113.64 41.8401 113.741 42.1282 113.574C42.4201 113.406 42.5723 113.143 42.5821 112.86L42.3314 113.005Z" fill="#8A98B4"/>
<path d="M53.4904 109.406L53.6836 108.594L53.6124 110.644L53.9829 110.43L54.0839 107.519L53.6312 107.78L53.2526 109.177L53.0807 109.903L53.1447 108.061L52.778 108.273L52.6769 111.184L53.0997 110.94L53.4904 109.406ZM55.0166 109.149C55.0004 109.614 55.2119 109.753 55.6161 109.52C56.0202 109.286 56.2502 108.893 56.2664 108.427L56.319 106.913C56.3352 106.447 56.1236 106.308 55.7195 106.542C55.3153 106.775 55.0853 107.169 55.0691 107.635L55.0501 108.184L54.7432 108.361L54.7865 107.113L54.3749 107.351L54.2738 110.262L54.6855 110.024L54.7288 108.777L55.0356 108.6L55.0166 109.149ZM55.4818 107.368C55.489 107.16 55.5741 107.033 55.705 106.958C55.836 106.882 55.9156 106.914 55.9084 107.122L55.8538 108.694C55.8466 108.902 55.7615 109.028 55.6305 109.104C55.4995 109.179 55.42 109.148 55.4272 108.94L55.4818 107.368ZM56.9689 107.483L57.4367 107.213L57.3933 108.461L57.8124 108.219L57.9135 105.308L57.4944 105.55L57.4511 106.797L56.9833 107.067L57.0267 105.82L56.615 106.057L56.5139 108.969L56.9256 108.731L56.9689 107.483Z" fill="#8A98B4"/>
<path d="M67.4348 101.431L67.628 100.619L67.5568 102.669L67.9273 102.455L68.0284 99.544L67.5756 99.8054L67.1971 101.202L67.0251 101.929L67.0891 100.086L66.7224 100.298L66.6213 103.209L67.0442 102.965L67.4348 101.431ZM68.961 101.174C68.9448 101.64 69.1564 101.778 69.5605 101.545C69.9646 101.312 70.1947 100.918 70.2108 100.452L70.2634 98.9383C70.2796 98.4725 70.068 98.3338 69.6639 98.5671C69.2598 98.8005 69.0297 99.1941 69.0136 99.6599L68.9945 100.209L68.6877 100.386L68.731 99.1384L68.3193 99.376L68.2183 102.287L68.6299 102.05L68.6732 100.802L68.9801 100.625L68.961 101.174ZM69.4262 99.3932C69.4334 99.1852 69.5185 99.0587 69.6495 98.983C69.7804 98.9074 69.86 98.9389 69.8528 99.1469L69.7982 100.719C69.791 100.927 69.7059 101.054 69.5749 101.129C69.444 101.205 69.3644 101.173 69.3716 100.965L69.4262 99.3932ZM70.3422 101.065L70.4058 101.028C70.8175 100.791 70.9968 100.483 71.0303 99.9425L71.1363 98.1572L71.4955 97.9498L71.4089 100.445L71.828 100.203L71.9291 97.2919L70.7653 97.9638L70.6215 100.203C70.6047 100.478 70.5438 100.541 70.3567 100.649L70.3422 101.065Z" fill="#8A98B4"/>
<path d="M82.7543 90.6977L82.1518 91.0456L81.6316 94.1989L82.0096 93.9807L82.099 93.4115L82.6042 93.1198L82.657 93.607L83.0723 93.3671L82.7543 90.6977ZM82.4146 91.3993L82.5618 92.7571L82.1651 92.9861L82.4146 91.3993ZM83.9863 89.9864L83.3651 90.3451L83.264 93.2565L83.9114 92.8827C84.323 92.6451 84.5447 92.2807 84.5603 91.8315L84.5685 91.5944C84.5792 91.2866 84.5008 91.1159 84.2833 91.1477C84.47 90.9462 84.559 90.7073 84.5694 90.4079L84.573 90.3039C84.5886 89.8547 84.4129 89.7401 83.9863 89.9864ZM83.9045 91.6028C84.0916 91.4948 84.1673 91.5326 84.1579 91.803L84.1491 92.0567C84.1416 92.2729 84.0643 92.3869 83.9258 92.4668L83.6901 92.6029L83.7211 91.7087L83.9045 91.6028ZM83.9606 90.4088C84.1066 90.3246 84.167 90.3793 84.1598 90.5873L84.1541 90.7495C84.1461 90.9824 84.0499 91.1113 83.8965 91.1999L83.7356 91.2928L83.7623 90.5233L83.9606 90.4088ZM85.1996 92.139L85.2862 89.6435L85.9598 89.2546L85.9743 88.8387L84.8891 89.4652L84.788 92.3766L85.1996 92.139Z" fill="#8A98B4"/>
<path d="M96.5905 84.5874L96.576 85.0033C96.5688 85.2112 96.4839 85.3336 96.3529 85.4092C96.2219 85.4849 96.1422 85.4575 96.1494 85.2496L96.204 83.6774C96.2112 83.4695 96.2963 83.3429 96.4273 83.2673C96.5582 83.1917 96.6378 83.2232 96.6306 83.4311L96.6198 83.7431L97.0089 83.5184L97.0188 83.2356C97.0349 82.7697 96.8346 82.6245 96.4305 82.8579C96.0263 83.0912 95.8075 83.4784 95.7914 83.9442L95.7388 85.4581C95.7226 85.9239 95.9229 86.0691 96.3271 85.8358C96.7312 85.6025 96.95 85.2153 96.9662 84.7495L96.9796 84.3627L96.5905 84.5874ZM97.69 82.5709L98.401 82.1604L98.4154 81.7445L97.2928 82.3926L97.1917 85.304L98.3143 84.6559L98.3287 84.24L97.6178 84.6505L97.6474 83.7978L98.2124 83.4716L98.2269 83.0557L97.6618 83.3819L97.69 82.5709ZM99.0243 83.0232L99.4921 82.7532L99.4488 84.0009L99.8679 83.7589L99.969 80.8475L99.5499 81.0895L99.5065 82.3372L99.0388 82.6073L99.0821 81.3596L98.6705 81.5972L98.5694 84.5086L98.981 84.271L99.0243 83.0232Z" fill="#8A98B4"/>
<path d="M78.422 76.1375C90.636 69.1626 90.6249 66.7756 102.948 59.7385L103.003 71.6733L78.4663 85.6853L53.9294 99.6974L29.2834 113.772L4.74643 127.784L4.64352 105.619C16.9665 98.5818 17.0093 107.789 29.2232 100.814C41.5462 93.7767 41.4742 78.2614 53.7972 71.2242C66.0111 64.2494 66.099 83.1746 78.422 76.1375Z" fill="url(#paint1_linear_1799_2273)"/>
<path d="M78.3027 50.0516C90.5166 43.0767 90.6171 64.7299 102.94 57.6927L102.95 59.7387C90.6266 66.7759 90.6377 69.1628 78.4238 76.1377C66.1008 83.1749 66.0129 64.2496 53.7989 71.2245C41.4759 78.2616 41.548 93.7769 29.225 100.814C17.011 107.789 16.9683 98.5821 4.64528 105.619L4.49092 72.3722C16.8139 65.335 17.9967 91.6696 30.2106 84.6948C42.5337 77.6576 41.3414 49.277 53.6644 42.2399C65.8783 35.265 65.9797 57.0887 78.3027 50.0516Z" fill="#DFE5FF"/>
<path d="M40.0024 107.544L39.739 50.8174" stroke="#E4E4E4" stroke-opacity="0.2" stroke-width="0.436341" stroke-linecap="square"/>
<path d="M25.1274 116.038L24.864 59.3116" stroke="#E4E4E4" stroke-opacity="0.2" stroke-width="0.436341" stroke-linecap="square"/>
<path d="M10.2211 124.552L9.95774 67.8253" stroke="#E4E4E4" stroke-opacity="0.2" stroke-width="0.436341" stroke-linecap="square"/>
<path d="M54.3852 99.3289L54.1218 42.6026" stroke="#E4E4E4" stroke-opacity="0.2" stroke-width="0.436341" stroke-linecap="square"/>
<path d="M68.768 91.115L68.5046 34.3887" stroke="#E4E4E4" stroke-opacity="0.2" stroke-width="0.436341" stroke-linecap="square"/>
<path d="M83.1508 82.9012L82.8874 26.1749" stroke="#E4E4E4" stroke-opacity="0.2" stroke-width="0.436341" stroke-linecap="square"/>
<path d="M97.5375 74.6863L97.2741 17.96" stroke="#E4E4E4" stroke-opacity="0.2" stroke-width="0.436341" stroke-linecap="square"/>
<g filter="url(#filter0_dd_1799_2273)">
<rect width="4.87413" height="4.96713" rx="2.43706" transform="matrix(-0.868382 0.495896 0.00464288 0.999989 85.1211 44.8564)" fill="url(#paint2_linear_1799_2273)"/>
<rect x="-0.376885" y="0.652717" width="4.00144" height="4.09444" rx="2.00072" transform="matrix(-0.868382 0.495896 0.00464288 0.999989 84.4139 45.0433)" stroke="white" stroke-width="0.872683"/>
</g>
<g filter="url(#filter1_dd_1799_2273)">
<rect width="4.87413" height="4.96713" rx="2.43706" transform="matrix(-0.868382 0.495896 0.00464289 0.999989 42.0352 85.6865)" fill="url(#paint3_linear_1799_2273)"/>
<rect x="-0.376885" y="0.652717" width="4.00145" height="4.09445" rx="2.00072" transform="matrix(-0.868382 0.495896 0.00464289 0.999989 41.328 85.8734)" stroke="white" stroke-width="0.872683"/>
</g>
<defs>
<filter id="filter0_dd_1799_2273" x="79.1531" y="44.9086" width="7.72511" height="9.02491" filterUnits="userSpaceOnUse" color-interpolation-filters="sRGB">
<feFlood flood-opacity="0" result="BackgroundImageFix"/>
<feColorMatrix in="SourceAlpha" type="matrix" values="0 0 0 0 0 0 0 0 0 0 0 0 0 0 0 0 0 0 127 0" result="hardAlpha"/>
<feOffset dy="0.872683"/>
<feGaussianBlur stdDeviation="0.872683"/>
<feColorMatrix type="matrix" values="0 0 0 0 0.196487 0 0 0 0 0.196487 0 0 0 0 0.279476 0 0 0 0.06 0"/>
<feBlend mode="multiply" in2="BackgroundImageFix" result="effect1_dropShadow_1799_2273"/>
<feColorMatrix in="SourceAlpha" type="matrix" values="0 0 0 0 0 0 0 0 0 0 0 0 0 0 0 0 0 0 127 0" result="hardAlpha"/>
<feOffset dy="0.872683"/>
<feGaussianBlur stdDeviation="0.436341"/>
<feColorMatrix type="matrix" values="0 0 0 0 0.196487 0 0 0 0 0.196487 0 0 0 0 0.279476 0 0 0 0.06 0"/>
<feBlend mode="multiply" in2="effect1_dropShadow_1799_2273" result="effect2_dropShadow_1799_2273"/>
<feBlend mode="normal" in="SourceGraphic" in2="effect2_dropShadow_1799_2273" result="shape"/>
</filter>
<filter id="filter1_dd_1799_2273" x="36.0671" y="85.7386" width="7.72511" height="9.02491" filterUnits="userSpaceOnUse" color-interpolation-filters="sRGB">
<feFlood flood-opacity="0" result="BackgroundImageFix"/>
<feColorMatrix in="SourceAlpha" type="matrix" values="0 0 0 0 0 0 0 0 0 0 0 0 0 0 0 0 0 0 127 0" result="hardAlpha"/>
<feOffset dy="0.872683"/>
<feGaussianBlur stdDeviation="0.872683"/>
<feColorMatrix type="matrix" values="0 0 0 0 0.196487 0 0 0 0 0.196487 0 0 0 0 0.279476 0 0 0 0.06 0"/>
<feBlend mode="multiply" in2="BackgroundImageFix" result="effect1_dropShadow_1799_2273"/>
<feColorMatrix in="SourceAlpha" type="matrix" values="0 0 0 0 0 0 0 0 0 0 0 0 0 0 0 0 0 0 127 0" result="hardAlpha"/>
<feOffset dy="0.872683"/>
<feGaussianBlur stdDeviation="0.436341"/>
<feColorMatrix type="matrix" values="0 0 0 0 0.196487 0 0 0 0 0.196487 0 0 0 0 0.279476 0 0 0 0.06 0"/>
<feBlend mode="multiply" in2="effect1_dropShadow_1799_2273" result="effect2_dropShadow_1799_2273"/>
<feBlend mode="normal" in="SourceGraphic" in2="effect2_dropShadow_1799_2273" result="shape"/>
</filter>
<linearGradient id="paint0_linear_1799_2273" x1="56.5747" y1="0" x2="56.5747" y2="88.6302" gradientUnits="userSpaceOnUse">
<stop stop-color="#F8F9FF"/>
<stop offset="1" stop-color="white" stop-opacity="0.64"/>
</linearGradient>
<linearGradient id="paint1_linear_1799_2273" x1="64.543" y1="92.9666" x2="52.1469" y2="72.3501" gradientUnits="userSpaceOnUse">
<stop stop-color="#7A8EE9"/>
<stop offset="1" stop-color="#A7B5F2"/>
</linearGradient>
<linearGradient id="paint2_linear_1799_2273" x1="2.43706" y1="-2.48356" x2="-2.52917" y2="2.38969" gradientUnits="userSpaceOnUse">
<stop stop-color="#A6D6FF"/>
<stop offset="1" stop-color="#0084F4"/>
</linearGradient>
<linearGradient id="paint3_linear_1799_2273" x1="2.35749" y1="-2.2403" x2="-2.4466" y2="2.47385" gradientUnits="userSpaceOnUse">
<stop stop-color="#CDD2FD"/>
<stop offset="1" stop-color="#6979F8"/>
</linearGradient>
</defs>
</svg>
