<svg width="155" height="156" viewBox="0 0 155 156" fill="none" xmlns="http://www.w3.org/2000/svg">
<path d="M0.145912 95.8735C0.0805198 96.4294 0.478103 96.933 1.03394 96.9983C1.58978 97.0637 2.09338 96.6662 2.15878 96.1103L0.145912 95.8735ZM49.9719 33.9323L50.3425 34.8755L49.9719 33.9323ZM74.0804 37.5486L73.7925 36.5769L74.0804 37.5486ZM102.408 1.98835L102.192 0.998109L102.408 1.98835ZM132.48 19.8701C133.039 19.905 133.52 19.4805 133.555 18.9219C133.59 18.3633 133.165 17.8822 132.607 17.8473L132.48 19.8701ZM2.15878 96.1103C2.73891 91.1791 4.91105 86.7599 7.77274 84.2472C9.19497 82.9984 10.7558 82.2457 12.3578 82.083C13.9469 81.9217 15.6683 82.331 17.4514 83.5655L18.6051 81.8991C16.4706 80.4214 14.2744 79.8513 12.1531 80.0666C10.0446 80.2807 8.10215 81.2608 6.43549 82.7242C3.11939 85.6359 0.771195 90.5586 0.145912 95.8735L2.15878 96.1103ZM17.4514 83.5655C21.3453 86.2612 24.337 88.1685 27.001 88.9758C28.3613 89.388 29.6629 89.5238 30.9755 89.3285C32.2844 89.1338 33.5454 88.6188 34.8385 87.8106L33.7644 86.0919C32.6466 86.7905 31.6475 87.1795 30.6773 87.3238C29.711 87.4676 28.7147 87.3774 27.5888 87.0362C25.2805 86.3367 22.5464 84.6277 18.6051 81.8991L17.4514 83.5655ZM34.8385 87.8106C36.3005 86.8969 37.2944 85.3836 37.9957 83.5822C38.6983 81.7772 39.1446 79.5869 39.4503 77.1846C40.0594 72.3995 40.1384 66.4943 40.4365 60.72C40.7377 54.887 41.2621 49.1456 42.727 44.4688C44.1901 39.7978 46.5309 36.3729 50.3425 34.8755L49.6014 32.9891C44.975 34.8066 42.3434 38.9132 40.7929 43.863C39.2443 48.807 38.714 54.7759 38.4125 60.6155C38.1079 66.5139 38.0362 72.2436 37.4398 76.9287C37.1429 79.2615 36.7228 81.2651 36.107 82.847C35.4898 84.4324 34.7133 85.4988 33.7644 86.0919L34.8385 87.8106ZM50.3425 34.8755C54.047 33.4201 57.9472 34.6707 62.1083 36.2577C64.1311 37.0292 66.2262 37.8802 68.2466 38.3925C70.2791 38.9079 72.3574 39.116 74.3682 38.5202L73.7925 36.5769C72.2763 37.0262 70.6071 36.9002 68.7448 36.428C66.8705 35.9527 64.9236 35.1623 62.8305 34.364C58.7598 32.8115 54.1328 31.2089 49.6014 32.9891L50.3425 34.8755ZM74.3682 38.5202C78.7199 37.2308 81.8292 34.4125 84.2516 30.9645C86.6595 27.5371 88.4303 23.4255 90.0828 19.4821C91.7548 15.4921 93.2981 11.6961 95.269 8.69418C97.2247 5.71521 99.516 3.65409 102.623 2.97859L102.192 0.998109C98.3684 1.8295 95.6873 4.36414 93.5747 7.58187C91.4773 10.7766 89.8564 14.7782 88.2135 18.6988C86.551 22.6661 84.8563 26.5781 82.5932 29.7994C80.3445 33.0001 77.5774 35.4555 73.7925 36.5769L74.3682 38.5202ZM102.623 2.97859C109.099 1.5707 113.106 5.15762 117.292 9.66324C119.345 11.8728 121.462 14.3274 123.85 16.2464C126.266 18.1885 129.042 19.6552 132.48 19.8701L132.607 17.8473C129.716 17.6667 127.329 16.4424 125.119 14.6666C122.881 12.8677 120.908 10.5774 118.777 8.28381C114.596 3.78307 109.864 -0.669713 102.192 0.998109L102.623 2.97859Z" fill="url(#paint0_linear_1799_2186)"/>
<path d="M153.619 88.2754C152.798 86.8375 151.4 85.4868 149.423 84.3483C142.664 80.4581 131.605 80.4581 124.846 84.3483C122.868 85.4868 121.47 86.8375 120.65 88.2754H119.777V91.4212C119.777 93.9855 121.467 96.5493 124.846 98.4941C131.605 102.384 142.664 102.384 149.423 98.4941C152.801 96.5493 154.491 93.9855 154.491 91.4212V88.2754H153.619Z" fill="#EAEDFF"/>
<path d="M137.128 98.5135C146.726 98.5135 154.507 94.0351 154.507 88.5107C154.507 82.9862 146.726 78.5078 137.128 78.5078C127.531 78.5078 119.75 82.9862 119.75 88.5107C119.75 94.0351 127.531 98.5135 137.128 98.5135Z" fill="#F8F9FF"/>
<path d="M122.279 106.353C121.458 104.915 120.061 103.564 118.083 102.425C111.324 98.5353 100.265 98.5353 93.5065 102.425C91.5287 103.564 90.1303 104.915 89.3105 106.353H88.4375V109.498C88.4375 112.063 90.1272 114.626 93.5065 116.571C100.265 120.461 111.324 120.461 118.083 116.571C121.462 114.626 123.151 112.063 123.151 109.498V106.353H122.279Z" fill="#EAEDFF"/>
<path d="M105.785 116.593C115.382 116.593 123.163 112.114 123.163 106.59C123.163 101.065 115.382 96.5869 105.785 96.5869C96.1868 96.5869 88.4062 101.065 88.4062 106.59C88.4062 112.114 96.1868 116.593 105.785 116.593Z" fill="#F8F9FF"/>
<path d="M89.732 124.435C88.9115 122.997 87.5138 121.646 85.536 120.507C78.7773 116.617 67.7182 116.617 60.9596 120.507C58.9818 121.646 57.5835 122.997 56.7636 124.435H55.8906V127.58C55.8906 130.145 57.5803 132.709 60.9596 134.653C67.7182 138.543 78.7773 138.543 85.536 134.653C88.9147 132.709 90.6044 130.145 90.6044 127.58V124.435H89.732Z" fill="#EAEDFF"/>
<path d="M73.2377 134.675C82.8356 134.675 90.6161 130.196 90.6161 124.672C90.6161 119.147 82.8356 114.669 73.2377 114.669C63.6399 114.669 55.8594 119.147 55.8594 124.672C55.8594 130.196 63.6399 134.675 73.2377 134.675Z" fill="#F8F9FF"/>
<path d="M58.3882 142.52C57.5678 141.082 56.17 139.731 54.1922 138.592C47.4336 134.702 36.3744 134.702 29.6158 138.592C27.638 139.731 26.2397 141.082 25.4198 142.52H24.5469V145.665C24.5469 148.23 26.2365 150.793 29.6158 152.738C36.3744 156.628 47.4336 156.628 54.1922 152.738C57.571 150.793 59.2606 148.23 59.2606 145.665V142.52H58.3882Z" fill="#EAEDFF"/>
<path d="M41.8979 152.758C51.4957 152.758 59.2763 148.279 59.2763 142.755C59.2763 137.23 51.4957 132.752 41.8979 132.752C32.3001 132.752 24.5195 137.23 24.5195 142.755C24.5195 148.279 32.3001 152.758 41.8979 152.758Z" fill="#F8F9FF"/>
<path d="M119.652 58.0154V86.5115C119.652 89.0068 121.292 91.4899 124.57 93.3945C131.164 97.2277 141.88 97.2277 148.522 93.3945C151.861 91.4658 153.525 88.9344 153.525 86.4151V57.9189C153.525 60.4383 151.861 62.9697 148.522 64.8983C141.892 68.7316 131.164 68.7316 124.57 64.8983C121.292 62.9938 119.652 60.5106 119.652 58.0154Z" fill="url(#paint1_linear_1799_2186)"/>
<path d="M124.65 51.0243C118.008 54.8576 117.972 61.0655 124.566 64.8988C131.159 68.732 141.888 68.732 148.517 64.8988C155.147 61.0655 155.183 54.8576 148.602 51.0243C142.02 47.1911 131.28 47.1911 124.65 51.0243Z" fill="#E5E9FF"/>
<path d="M122.313 36.7998C122.313 39.3191 120.662 41.8505 117.323 43.7792C115.858 44.6075 114.295 45.2474 112.67 45.6838C110.472 46.2825 108.209 46.6064 105.932 46.6481C101.569 46.8218 97.2376 45.8316 93.3833 43.7792C92.8326 43.4677 92.3049 43.1173 91.8042 42.7305C90.5351 41.8011 89.5331 40.5538 88.8991 39.1142C88.6172 38.4081 88.466 37.6565 88.4531 36.8962L88.646 104.4C88.6533 105.161 88.8047 105.913 89.092 106.618C89.723 108.059 90.7256 109.307 91.9971 110.234C92.4977 110.621 93.0255 110.971 93.5762 111.283C97.4427 113.349 101.793 114.34 106.173 114.152C108.446 114.111 110.706 113.787 112.899 113.187C114.513 112.753 116.065 112.113 117.516 111.283C120.855 109.366 122.53 106.835 122.518 104.303L122.313 36.7998Z" fill="url(#paint2_linear_1799_2186)"/>
<path d="M93.4638 29.9036C86.834 33.7369 86.7978 39.9568 93.3915 43.778C99.9851 47.5992 110.701 47.6113 117.343 43.778C123.985 39.9448 124.009 33.7369 117.416 29.9036C110.822 26.0704 100.106 26.0824 93.4638 29.9036Z" fill="#E5E9FF"/>
<path d="M85.2566 80.0628C83.7993 80.871 82.249 81.4984 80.6398 81.9312C78.4461 82.529 76.1868 82.8529 73.9135 82.8955C69.5303 83.0776 65.1778 82.0873 61.3048 80.0266C60.7539 79.7111 60.2262 79.3566 59.7257 78.9658C58.453 78.0402 57.4502 76.7919 56.8207 75.3496C56.5375 74.6442 56.3902 73.8917 56.3867 73.1316V122.988C56.3986 123.748 56.5497 124.5 56.8327 125.206C57.4602 126.649 58.4634 127.898 59.7378 128.822C60.2382 129.213 60.7659 129.567 61.3169 129.883C65.1854 131.944 69.5341 132.934 73.9135 132.752C76.1875 132.707 78.447 132.379 80.6398 131.775C82.2564 131.342 83.8117 130.706 85.2686 129.883C88.6076 127.954 90.2711 125.423 90.2591 122.891V73.0352C90.2591 75.6027 88.5715 78.1341 85.2566 80.0628Z" fill="url(#paint3_linear_1799_2186)"/>
<path d="M61.3779 66.1884C54.748 70.0216 54.7119 76.2296 61.3055 80.0628C67.8992 83.896 78.6154 83.896 85.2573 80.0628C91.8991 76.2296 91.9232 70.0216 85.3296 66.1884C78.7359 62.3552 68.08 62.3552 61.3779 66.1884Z" fill="#E5E9FF"/>
<path d="M54.0027 122.423C52.5481 123.245 50.9974 123.885 49.3859 124.327C47.1926 124.927 44.9331 125.251 42.6596 125.292C38.2764 125.474 33.9239 124.483 30.0509 122.423C29.5036 122.101 28.9762 121.747 28.4718 121.362C27.2059 120.432 26.208 119.185 25.5788 117.746C25.2915 117.041 25.1401 116.289 25.1328 115.528V141.059C25.1328 141.82 25.2844 142.574 25.5788 143.277C26.2014 144.72 27.2007 145.969 28.4718 146.893C28.9743 147.281 29.5019 147.635 30.0509 147.954C33.9239 150.014 38.2764 151.005 42.6596 150.822C44.9335 150.777 47.1929 150.449 49.3859 149.846C50.998 149.411 52.549 148.775 54.0027 147.954C57.3417 146.025 59.0052 143.494 59.0052 140.962V115.443C59.0172 117.963 57.3417 120.506 54.0027 122.423Z" fill="url(#paint4_linear_1799_2186)"/>
<path d="M30.1339 108.547C23.492 112.38 23.4679 118.588 30.0495 122.421C36.6311 126.254 47.3714 126.254 54.0012 122.421C60.6311 118.588 60.6793 112.38 54.0856 108.547C47.492 104.714 36.7396 104.714 30.1339 108.547Z" fill="#E5E9FF"/>
<path d="M38.6513 92.7678C38.6513 93.2852 38.4512 93.567 38.1232 93.7565L37.7791 93.9551L37.779 94.8791L38.0751 94.7082C38.4752 94.4772 38.6512 94.5973 38.6512 95.1979L38.6511 95.7061C38.6511 96.279 38.475 96.5377 38.1949 96.6994C37.9149 96.8611 37.7388 96.7871 37.7389 96.3251L37.7389 95.7246L36.9067 96.205L36.9067 96.7409C36.9066 97.7758 37.3547 98.1084 38.2189 97.6095C39.0831 97.1105 39.5313 96.2605 39.5313 95.2256L39.5314 94.7174C39.5314 94.0614 39.3554 93.6825 38.9153 93.7149C39.3394 93.2668 39.5315 92.7216 39.5316 92.0286L39.5316 91.8623C39.5317 90.8274 39.0836 90.4948 38.2194 90.9937C37.3552 91.4927 36.907 92.3428 36.9069 93.3776L36.9069 93.7287L37.7391 93.2483L37.7391 92.8325C37.7392 92.3705 37.9152 92.0933 38.1953 91.9316C38.4754 91.7699 38.6514 91.8253 38.6514 92.4074L38.6513 92.7678ZM40.0874 94.3687L40.0873 94.9046C40.0873 95.9395 40.5353 96.2721 41.3995 95.7731C42.2638 95.2742 42.7119 94.4241 42.712 93.3893L42.7121 91.9478C42.7122 90.9961 42.3841 90.6589 41.736 91.0331C41.3839 91.2364 41.1278 91.5505 40.9677 91.9478L41.0399 90.3632L42.5683 89.4808L42.5683 88.5568L40.2478 89.8966L40.0874 93.7404L40.9196 93.2599L40.9197 93.0659C40.9197 92.6039 41.0957 92.3267 41.3758 92.165C41.6559 92.0033 41.8319 92.0772 41.8319 92.5392L41.8318 93.9621C41.8317 94.4241 41.6557 94.6921 41.3756 94.8538C41.0955 95.0155 40.9195 94.9508 40.9195 94.4888L40.9196 93.8882L40.0874 94.3687ZM43.8124 88.7809C43.8125 88.4945 43.9165 88.3143 44.1005 88.2081C44.2766 88.1064 44.3886 88.1619 44.3886 88.4483L44.3884 90.6659C44.3884 90.9523 44.2764 91.1371 44.1003 91.2388C43.9163 91.345 43.8123 91.285 43.8123 90.9985L43.8124 88.7809ZM43.2521 91.2757C43.2521 91.941 43.5481 92.1396 44.1003 91.8209C44.6524 91.5021 44.9485 90.9616 44.9486 90.2963L44.9487 88.1711C44.9488 87.5058 44.6527 87.3072 44.1006 87.626C43.5485 87.9447 43.2524 88.4853 43.2523 89.1505L43.2521 91.2757ZM44.1001 94.1401L44.6202 93.8398L46.8293 86.0968L46.3091 86.3971L44.1001 94.1401ZM46.589 89.5432C46.589 89.2568 46.693 89.0766 46.8771 88.9704C47.0531 88.8687 47.1651 88.9242 47.1651 89.2106L47.1649 91.4282C47.1649 91.7146 47.0529 91.8994 46.8768 92.0011C46.6928 92.1073 46.5888 92.0473 46.5888 91.7608L46.589 89.5432ZM46.0286 92.038C46.0286 92.7033 46.3246 92.9019 46.8768 92.5832C47.4289 92.2644 47.725 91.7239 47.7251 91.0586L47.7252 88.9334C47.7253 88.2681 47.4292 88.0695 46.8771 88.3883C46.325 88.707 46.0289 89.2476 46.0288 89.9128L46.0286 92.038Z" fill="#8A98B4"/>
<path d="M131.8 36.4269C131.8 36.9444 131.6 37.2262 131.272 37.4156L130.927 37.6143L130.927 38.5383L131.223 38.3673C131.624 38.1363 131.8 38.2564 131.8 38.857L131.8 39.3652C131.799 39.9381 131.623 40.1968 131.343 40.3585C131.063 40.5202 130.887 40.4463 130.887 39.9843L130.887 39.3837L130.055 39.8642L130.055 40.4001C130.055 41.435 130.503 41.7676 131.367 41.2686C132.232 40.7697 132.68 39.9196 132.68 38.8847L132.68 38.3765C132.68 37.7205 132.504 37.3417 132.064 37.374C132.488 36.9259 132.68 36.3807 132.68 35.6877L132.68 35.5214C132.68 34.4865 132.232 34.1539 131.368 34.6529C130.504 35.1518 130.055 36.0019 130.055 37.0368L130.055 37.3879L130.888 36.9074L130.888 36.4916C130.888 36.0296 131.064 35.7524 131.344 35.5907C131.624 35.429 131.8 35.4845 131.8 36.0666L131.8 36.4269ZM135.861 33.685C135.861 32.6501 135.389 32.3314 134.524 32.8303C133.66 33.3293 133.188 34.1932 133.188 35.2281L133.188 36.4108C133.188 37.3625 133.516 37.6998 134.164 37.3255C134.556 37.0991 134.828 36.7388 134.98 36.2814L134.98 37.4641C134.98 38.0832 134.804 38.3604 134.492 38.5406C134.212 38.7023 134.036 38.6284 134.036 38.1664L134.036 37.9354L133.204 38.4159L133.204 38.5822C133.204 39.617 133.652 39.9497 134.516 39.4507C135.428 38.924 135.86 38.0832 135.86 36.9929L135.861 33.685ZM134.524 36.1936C134.244 36.3553 134.068 36.2814 134.068 35.8194L134.068 34.6552C134.068 34.1932 134.244 33.9253 134.524 33.7635C134.804 33.6018 134.98 33.6665 134.98 34.1285L134.98 35.2927C134.98 35.7547 134.804 36.0319 134.524 36.1936ZM136.961 32.44C136.961 32.1535 137.065 31.9733 137.249 31.8671C137.425 31.7654 137.537 31.8209 137.537 32.1073L137.537 34.3249C137.537 34.6113 137.425 34.7961 137.249 34.8978C137.065 35.004 136.961 34.944 136.961 34.6575L136.961 32.44ZM136.4 34.9347C136.4 35.6 136.696 35.7987 137.249 35.4799C137.801 35.1611 138.097 34.6205 138.097 33.9553L138.097 31.8301C138.097 31.1648 137.801 30.9662 137.249 31.285C136.697 31.6038 136.401 32.1443 136.401 32.8096L136.4 34.9347ZM137.248 37.7991L137.769 37.4988L139.978 29.7557L139.457 30.056L137.248 37.7991ZM139.737 33.2022C139.737 32.9158 139.841 32.7356 140.025 32.6293C140.201 32.5277 140.313 32.5831 140.313 32.8695L140.313 35.0871C140.313 35.3736 140.201 35.5584 140.025 35.66C139.841 35.7663 139.737 35.7062 139.737 35.4198L139.737 33.2022ZM139.177 35.697C139.177 36.3622 139.473 36.5609 140.025 36.2421C140.577 35.9233 140.873 35.3828 140.873 34.7175L140.874 32.5923C140.874 31.9271 140.578 31.7284 140.025 32.0472C139.473 32.366 139.177 32.9065 139.177 33.5718L139.177 35.697Z" fill="#8A98B4"/>
<path d="M64.7077 53.3811L64.7077 53.917C64.7076 54.9519 65.1557 55.2845 66.0199 54.7856C66.8841 54.2866 67.3323 53.4366 67.3323 52.4017L67.3324 50.9603C67.3325 50.0086 67.0045 49.6713 66.3563 50.0455C66.0042 50.2488 65.7481 50.5629 65.5881 50.9603L65.6602 49.3756L67.1886 48.4932L67.1887 47.5693L64.8681 48.909L64.7077 52.7528L65.54 52.2723L65.54 52.0783C65.54 51.6163 65.7161 51.3391 65.9961 51.1774C66.2762 51.0157 66.4522 51.0896 66.4522 51.5516L66.4521 52.9746C66.4521 53.4366 66.276 53.7045 65.9959 53.8662C65.7159 54.0279 65.5398 53.9632 65.5399 53.5012L65.5399 52.9006L64.7077 53.3811ZM69.6651 47.7288C69.6649 49.5952 67.9205 50.9165 67.9203 52.8199L67.9203 53.6145L70.4649 52.1455L70.465 51.2215L68.8005 52.1824C68.7926 52.1408 68.7926 52.0946 68.7926 52.0484C68.7926 50.9858 70.5451 49.2164 70.5453 47.1836C70.5454 46.1488 70.0973 45.8161 69.2331 46.3151C68.3689 46.814 67.9207 47.6641 67.9206 48.6989L67.9206 49.3272L68.7528 48.8468L68.7528 48.1538C68.7529 47.6918 68.9289 47.4146 69.209 47.2529C69.4891 47.0912 69.6651 47.1467 69.6651 47.7288ZM71.6055 45.9618C71.6055 45.6753 71.7096 45.4952 71.8936 45.3889C72.0697 45.2873 72.1817 45.3427 72.1816 45.6291L72.1815 47.8467C72.1815 48.1331 72.0694 48.3179 71.8934 48.4196C71.7093 48.5258 71.6053 48.4658 71.6053 48.1793L71.6055 45.9618ZM71.0452 48.4565C71.0451 49.1218 71.3412 49.3205 71.8933 49.0017C72.4455 48.6829 72.7416 48.1424 72.7416 47.4771L72.7418 45.352C72.7418 44.6867 72.4458 44.488 71.8936 44.8068C71.3415 45.1255 71.0454 45.6661 71.0454 46.3313L71.0452 48.4565ZM71.8932 51.3209L72.4133 51.0206L74.6224 43.2777L74.1022 43.5779L71.8932 51.3209ZM74.382 46.7241C74.3821 46.4377 74.4861 46.2575 74.6701 46.1513C74.8462 46.0496 74.9582 46.1051 74.9582 46.3915L74.958 48.6091C74.958 48.8955 74.846 49.0803 74.6699 49.1819C74.4859 49.2882 74.3819 49.2281 74.3819 48.9417L74.382 46.7241ZM73.8217 49.2189C73.8217 49.8841 74.1177 50.0828 74.6699 49.764C75.222 49.4453 75.5181 48.9048 75.5182 48.2395L75.5183 46.1143C75.5184 45.449 75.2223 45.2504 74.6702 45.5691C74.118 45.8879 73.8219 46.4284 73.8219 47.0937L73.8217 49.2189Z" fill="#8A98B4"/>
<path d="M99.2463 19.3706C99.2463 20.4054 99.7183 20.7242 100.583 20.2252C101.447 19.7263 101.919 18.8624 101.919 17.8275L101.919 16.6448C101.919 15.6931 101.591 15.3558 100.943 15.73C100.551 15.9564 100.279 16.3168 100.127 16.7742L100.127 15.5914C100.127 14.9724 100.303 14.6952 100.615 14.515C100.895 14.3533 101.071 14.4272 101.071 14.8892L101.071 15.1202L101.903 14.6397L101.903 14.4734C101.903 13.4386 101.455 13.1059 100.591 13.6049C99.6788 14.1315 99.2467 14.9724 99.2466 16.0627L99.2463 19.3706ZM100.583 16.8619C100.863 16.7002 101.039 16.7742 101.039 17.2361L101.039 18.4004C101.039 18.8624 100.863 19.1303 100.583 19.292C100.303 19.4537 100.127 19.389 100.127 18.927L100.127 17.7628C100.127 17.3008 100.303 17.0236 100.583 16.8619ZM102.267 18.0054L103.963 17.026L103.963 18.1995L104.827 17.7005L104.828 16.5271L105.244 16.2868L105.244 15.3628L104.828 15.6031L104.828 11.2326L103.868 11.787L102.267 17.0815L102.267 18.0054ZM103.075 16.6148L103.964 13.6719L103.963 16.102L103.075 16.6148ZM106.16 11.4059C106.16 11.1195 106.264 10.9393 106.448 10.8331C106.624 10.7314 106.736 10.7869 106.736 11.0733L106.736 13.2909C106.736 13.5773 106.624 13.7621 106.448 13.8637C106.264 13.97 106.16 13.9099 106.16 13.6235L106.16 11.4059ZM105.6 13.9007C105.6 14.566 105.896 14.7646 106.448 14.4459C107 14.1271 107.296 13.5865 107.296 12.9213L107.296 10.7961C107.296 10.1308 107 9.93218 106.448 10.251C105.896 10.5697 105.6 11.1103 105.6 11.7755L105.6 13.9007ZM106.448 16.7651L106.968 16.4648L109.177 8.72175L108.657 9.02205L106.448 16.7651ZM108.937 12.1682C108.937 11.8818 109.041 11.7016 109.225 11.5954C109.401 11.4937 109.513 11.5492 109.513 11.8356L109.513 14.0532C109.513 14.3396 109.401 14.5244 109.224 14.626C109.04 14.7323 108.936 14.6722 108.936 14.3858L108.937 12.1682ZM108.376 14.663C108.376 15.3283 108.672 15.5269 109.224 15.2081C109.777 14.8894 110.073 14.3488 110.073 13.6836L110.073 11.5584C110.073 10.8931 109.777 10.6945 109.225 11.0132C108.673 11.332 108.377 11.8726 108.376 12.5378L108.376 14.663Z" fill="#8A98B4"/>
<path d="M41.8319 111.163C41.7599 111.148 41.6943 111.111 41.6446 111.057C41.5948 111.003 41.5633 110.934 41.5547 110.861V98.325C41.5698 98.2449 41.6123 98.1726 41.6751 98.1205C41.7378 98.0685 41.8167 98.04 41.8982 98.04C41.9797 98.04 42.0587 98.0685 42.1214 98.1205C42.1841 98.1726 42.2267 98.2449 42.2418 98.325V110.861C42.236 110.909 42.2206 110.954 42.1965 110.995C42.1725 111.036 42.1403 111.072 42.1019 111.1C42.0635 111.129 42.0198 111.149 41.9733 111.159C41.9269 111.17 41.8788 111.171 41.8319 111.163Z" fill="#B6C6E2"/>
<path d="M43.4157 110.307C43.4157 109.306 42.7165 108.897 41.8366 109.403C41.3802 109.702 41.0006 110.105 40.7284 110.578C40.4562 111.051 40.299 111.582 40.2695 112.127C40.2695 113.14 40.9687 113.537 41.8366 113.043C42.2975 112.745 42.6809 112.341 42.9554 111.865C43.2299 111.389 43.3877 110.855 43.4157 110.307Z" fill="#B6C6E2"/>
<path d="M70.6344 67.8278C70.5438 67.8247 70.4579 67.7865 70.395 67.7213C70.332 67.6561 70.2968 67.5689 70.2969 67.4783V54.9901C70.2969 54.9006 70.3324 54.8147 70.3957 54.7514C70.459 54.6881 70.5449 54.6526 70.6344 54.6526C70.6792 54.6509 70.7238 54.6585 70.7655 54.6748C70.8073 54.6912 70.8451 54.716 70.8768 54.7477C70.9085 54.7794 70.9333 54.8172 70.9497 54.859C70.966 54.9007 70.9736 54.9453 70.9719 54.9901V67.4662C70.9752 67.5125 70.969 67.559 70.9535 67.6028C70.938 67.6466 70.9137 67.6867 70.882 67.7206C70.8503 67.7546 70.812 67.7816 70.7694 67.8C70.7268 67.8185 70.6808 67.828 70.6344 67.8278Z" fill="#B6C6E2"/>
<path d="M72.2164 66.9729C72.2164 65.9724 71.5052 65.5626 70.6373 66.0688C70.181 66.3684 69.8014 66.771 69.5292 67.2442C69.257 67.7174 69.0998 68.248 69.0703 68.7931C69.0703 69.8056 69.7694 70.2034 70.6373 69.7092C71.0969 69.4091 71.4793 69.005 71.7537 68.5296C72.028 68.0542 72.1865 67.5209 72.2164 66.9729Z" fill="#B6C6E2"/>
<path d="M104.627 33.642C104.582 33.6436 104.537 33.6361 104.496 33.6197C104.454 33.6033 104.416 33.5785 104.384 33.5469C104.353 33.5152 104.328 33.4773 104.312 33.4356C104.295 33.3939 104.288 33.3492 104.289 33.3044V20.8163C104.288 20.7715 104.295 20.7268 104.312 20.6851C104.328 20.6434 104.353 20.6055 104.384 20.5738C104.416 20.5422 104.454 20.5174 104.496 20.501C104.537 20.4846 104.582 20.4771 104.627 20.4787C104.671 20.4787 104.715 20.4875 104.756 20.5044C104.797 20.5214 104.834 20.5463 104.865 20.5776C104.897 20.6089 104.922 20.6462 104.939 20.6871C104.956 20.7281 104.964 20.7719 104.964 20.8163V33.3044C104.964 33.3939 104.929 33.4798 104.865 33.5431C104.802 33.6064 104.716 33.642 104.627 33.642Z" fill="#B6C6E2"/>
<path d="M106.193 32.7971C106.193 31.7966 105.494 31.3868 104.626 31.893C104.165 32.1899 103.781 32.5914 103.505 33.0647C103.228 33.5381 103.067 34.07 103.035 34.6173C103.035 35.6178 103.746 36.0276 104.614 35.5334C105.074 35.234 105.457 34.8301 105.732 34.3546C106.006 33.879 106.164 33.3454 106.193 32.7971Z" fill="#B6C6E2"/>
<path d="M135.588 54.363C135.497 54.3599 135.411 54.3217 135.348 54.2564C135.285 54.1912 135.25 54.1041 135.25 54.0134V41.5252C135.25 41.4357 135.286 41.3499 135.349 41.2866C135.412 41.2233 135.498 41.1877 135.588 41.1877C135.632 41.186 135.677 41.1936 135.719 41.21C135.76 41.2263 135.798 41.2511 135.83 41.2828C135.862 41.3145 135.886 41.3524 135.903 41.3941C135.919 41.4358 135.927 41.4805 135.925 41.5252V54.0134C135.927 54.0587 135.919 54.1039 135.903 54.1463C135.887 54.1886 135.862 54.2273 135.831 54.2599C135.799 54.2925 135.761 54.3185 135.72 54.3362C135.678 54.3539 135.633 54.363 135.588 54.363Z" fill="#B6C6E2"/>
<path d="M137.123 53.5071C137.123 52.5066 136.412 52.0967 135.544 52.603C135.086 52.9019 134.705 53.3041 134.43 53.7773C134.156 54.2504 133.997 54.7813 133.965 55.3273C133.965 56.3398 134.676 56.7376 135.544 56.2434C136.003 55.9433 136.386 55.5392 136.66 55.0638C136.935 54.5884 137.093 54.0551 137.123 53.5071Z" fill="#B6C6E2"/>
<defs>
<linearGradient id="paint0_linear_1799_2186" x1="66.8478" y1="95.9919" x2="66.8478" y2="1.6543" gradientUnits="userSpaceOnUse">
<stop stop-color="white"/>
<stop offset="1" stop-color="#8093EB"/>
</linearGradient>
<linearGradient id="paint1_linear_1799_2186" x1="119.958" y1="92.8078" x2="140.982" y2="54.7494" gradientUnits="userSpaceOnUse">
<stop stop-color="#CBD3FF"/>
<stop offset="1" stop-color="white"/>
</linearGradient>
<linearGradient id="paint2_linear_1799_2186" x1="88.761" y1="107.19" x2="138.605" y2="62.2113" gradientUnits="userSpaceOnUse">
<stop stop-color="#CBD3FF"/>
<stop offset="1" stop-color="white"/>
</linearGradient>
<linearGradient id="paint3_linear_1799_2186" x1="56.6928" y1="127.381" x2="94.946" y2="82.9236" gradientUnits="userSpaceOnUse">
<stop stop-color="#CBD3FF"/>
<stop offset="1" stop-color="white"/>
</linearGradient>
<linearGradient id="paint4_linear_1799_2186" x1="25.4389" y1="147.648" x2="43.9937" y2="111.259" gradientUnits="userSpaceOnUse">
<stop stop-color="#CBD3FF"/>
<stop offset="1" stop-color="white"/>
</linearGradient>
</defs>
</svg>
