<svg width="250" height="36" viewBox="0 0 250 36" fill="none" xmlns="http://www.w3.org/2000/svg">
<g filter="url(#filter0_d_1802_1014)">
<mask id="path-1-inside-1_1802_1014" fill="white">
<path d="M122.05 10L122.038 3.88002L119.002 8.98002H118.45L115.414 3.91602V10H114.262V1.60002H115.246L118.75 7.50402L122.206 1.60002H123.19L123.202 10H122.05Z"/>
<path d="M128.279 10.072C127.647 10.072 127.079 9.93202 126.575 9.65202C126.071 9.37202 125.675 8.98802 125.387 8.50002C125.107 8.00402 124.967 7.44402 124.967 6.82002C124.967 6.19602 125.107 5.64002 125.387 5.15202C125.675 4.65602 126.071 4.27202 126.575 4.00002C127.079 3.72002 127.647 3.58002 128.279 3.58002C128.911 3.58002 129.475 3.72002 129.971 4.00002C130.475 4.27202 130.867 4.65602 131.147 5.15202C131.435 5.64002 131.579 6.19602 131.579 6.82002C131.579 7.44402 131.435 8.00402 131.147 8.50002C130.867 8.98802 130.475 9.37202 129.971 9.65202C129.475 9.93202 128.911 10.072 128.279 10.072ZM128.279 9.06402C128.687 9.06402 129.051 8.97202 129.371 8.78802C129.699 8.59602 129.955 8.33202 130.139 7.99602C130.323 7.65202 130.415 7.26002 130.415 6.82002C130.415 6.38002 130.323 5.99202 130.139 5.65602C129.955 5.31202 129.699 5.04802 129.371 4.86402C129.051 4.68002 128.687 4.58802 128.279 4.58802C127.871 4.58802 127.503 4.68002 127.175 4.86402C126.855 5.04802 126.599 5.31202 126.407 5.65602C126.223 5.99202 126.131 6.38002 126.131 6.82002C126.131 7.26002 126.223 7.65202 126.407 7.99602C126.599 8.33202 126.855 8.59602 127.175 8.78802C127.503 8.97202 127.871 9.06402 128.279 9.06402Z"/>
<path d="M136.544 3.58002C137.16 3.58002 137.712 3.71602 138.2 3.98802C138.688 4.26002 139.068 4.64002 139.34 5.12802C139.62 5.61602 139.76 6.18002 139.76 6.82002C139.76 7.46002 139.62 8.02802 139.34 8.52402C139.068 9.01202 138.688 9.39202 138.2 9.66402C137.712 9.93602 137.16 10.072 136.544 10.072C136.072 10.072 135.64 9.98002 135.248 9.79602C134.856 9.61202 134.532 9.34402 134.276 8.99202V10H133.172V1.09602H134.324V4.60002C134.58 4.26402 134.9 4.01202 135.284 3.84402C135.668 3.66802 136.088 3.58002 136.544 3.58002ZM136.448 9.06402C136.856 9.06402 137.22 8.97202 137.54 8.78802C137.868 8.59602 138.124 8.33202 138.308 7.99602C138.5 7.65202 138.596 7.26002 138.596 6.82002C138.596 6.38002 138.5 5.99202 138.308 5.65602C138.124 5.31202 137.868 5.04802 137.54 4.86402C137.22 4.68002 136.856 4.58802 136.448 4.58802C136.048 4.58802 135.684 4.68002 135.356 4.86402C135.028 5.04802 134.772 5.31202 134.588 5.65602C134.404 5.99202 134.312 6.38002 134.312 6.82002C134.312 7.26002 134.404 7.65202 134.588 7.99602C134.772 8.33202 135.028 8.59602 135.356 8.78802C135.684 8.97202 136.048 9.06402 136.448 9.06402Z"/>
<path d="M141.352 3.64002H142.504V10H141.352V3.64002ZM141.928 2.41602C141.704 2.41602 141.516 2.34402 141.364 2.20002C141.22 2.05602 141.148 1.88002 141.148 1.67202C141.148 1.46402 141.22 1.28802 141.364 1.14402C141.516 0.992016 141.704 0.916016 141.928 0.916016C142.152 0.916016 142.336 0.988016 142.48 1.13202C142.632 1.26802 142.708 1.44002 142.708 1.64802C142.708 1.86402 142.632 2.04802 142.48 2.20002C142.336 2.34402 142.152 2.41602 141.928 2.41602Z"/>
<path d="M144.703 1.09602H145.855V10H144.703V1.09602Z"/>
<path d="M153.803 6.85602C153.803 6.94402 153.795 7.06002 153.779 7.20402H148.619C148.691 7.76402 148.935 8.21602 149.351 8.56002C149.775 8.89602 150.299 9.06402 150.923 9.06402C151.683 9.06402 152.295 8.80802 152.759 8.29602L153.395 9.04002C153.107 9.37602 152.747 9.63202 152.315 9.80802C151.891 9.98402 151.415 10.072 150.887 10.072C150.215 10.072 149.619 9.93602 149.099 9.66402C148.579 9.38402 148.175 8.99602 147.887 8.50002C147.607 8.00402 147.467 7.44402 147.467 6.82002C147.467 6.20402 147.603 5.64802 147.875 5.15202C148.155 4.65602 148.535 4.27202 149.015 4.00002C149.503 3.72002 150.051 3.58002 150.659 3.58002C151.267 3.58002 151.807 3.72002 152.279 4.00002C152.759 4.27202 153.131 4.65602 153.395 5.15202C153.667 5.64802 153.803 6.21602 153.803 6.85602ZM150.659 4.55202C150.107 4.55202 149.643 4.72002 149.267 5.05602C148.899 5.39202 148.683 5.83202 148.619 6.37602H152.699C152.635 5.84002 152.415 5.40402 152.039 5.06802C151.671 4.72402 151.211 4.55202 150.659 4.55202Z"/>
<path d="M166.581 10L166.569 3.88002L163.533 8.98002H162.981L159.945 3.91602V10H158.793V1.60002H159.777L163.281 7.50402L166.737 1.60002H167.721L167.733 10H166.581Z"/>
<path d="M172.402 3.58002C173.282 3.58002 173.954 3.79602 174.418 4.22802C174.89 4.66002 175.126 5.30402 175.126 6.16002V10H174.034V9.16002C173.842 9.45602 173.566 9.68402 173.206 9.84402C172.854 9.99602 172.434 10.072 171.946 10.072C171.234 10.072 170.662 9.90002 170.23 9.55602C169.806 9.21202 169.594 8.76002 169.594 8.20002C169.594 7.64002 169.798 7.19202 170.206 6.85602C170.614 6.51202 171.262 6.34002 172.15 6.34002H173.974V6.11202C173.974 5.61602 173.83 5.23602 173.542 4.97202C173.254 4.70802 172.83 4.57602 172.27 4.57602C171.894 4.57602 171.526 4.64002 171.166 4.76802C170.806 4.88802 170.502 5.05202 170.254 5.26002L169.774 4.39602C170.102 4.13202 170.494 3.93202 170.95 3.79602C171.406 3.65202 171.89 3.58002 172.402 3.58002ZM172.138 9.18402C172.578 9.18402 172.958 9.08802 173.278 8.89602C173.598 8.69602 173.83 8.41602 173.974 8.05602V7.16802H172.198C171.222 7.16802 170.734 7.49602 170.734 8.15202C170.734 8.47202 170.858 8.72402 171.106 8.90802C171.354 9.09202 171.698 9.18402 172.138 9.18402Z"/>
<path d="M178.362 4.70802C178.562 4.34002 178.858 4.06002 179.25 3.86802C179.642 3.67602 180.118 3.58002 180.678 3.58002V4.69602C180.614 4.68802 180.526 4.68402 180.414 4.68402C179.79 4.68402 179.298 4.87202 178.938 5.24802C178.586 5.61602 178.41 6.14402 178.41 6.83202V10H177.258V3.64002H178.362V4.70802Z"/>
<path d="M184.57 7.03602L183.25 8.26002V10H182.098V1.09602H183.25V6.80802L186.718 3.64002H188.11L185.434 6.26802L188.374 10H186.958L184.57 7.03602Z"/>
<path d="M194.971 6.85602C194.971 6.94402 194.963 7.06002 194.947 7.20402H189.787C189.859 7.76402 190.103 8.21602 190.519 8.56002C190.943 8.89602 191.467 9.06402 192.091 9.06402C192.851 9.06402 193.463 8.80802 193.927 8.29602L194.563 9.04002C194.275 9.37602 193.915 9.63202 193.483 9.80802C193.059 9.98402 192.583 10.072 192.055 10.072C191.383 10.072 190.787 9.93602 190.267 9.66402C189.747 9.38402 189.343 8.99602 189.055 8.50002C188.775 8.00402 188.635 7.44402 188.635 6.82002C188.635 6.20402 188.771 5.64802 189.043 5.15202C189.323 4.65602 189.703 4.27202 190.183 4.00002C190.671 3.72002 191.219 3.58002 191.827 3.58002C192.435 3.58002 192.975 3.72002 193.447 4.00002C193.927 4.27202 194.299 4.65602 194.563 5.15202C194.835 5.64802 194.971 6.21602 194.971 6.85602ZM191.827 4.55202C191.275 4.55202 190.811 4.72002 190.435 5.05602C190.067 5.39202 189.851 5.83202 189.787 6.37602H193.867C193.803 5.84002 193.583 5.40402 193.207 5.06802C192.839 4.72402 192.379 4.55202 191.827 4.55202Z"/>
<path d="M200.146 9.62802C199.978 9.77202 199.77 9.88402 199.522 9.96402C199.274 10.036 199.018 10.072 198.754 10.072C198.114 10.072 197.618 9.90002 197.266 9.55602C196.914 9.21202 196.738 8.72002 196.738 8.08002V4.58802H195.658V3.64002H196.738V2.24802H197.89V3.64002H199.714V4.58802H197.89V8.03202C197.89 8.37602 197.974 8.64002 198.142 8.82402C198.318 9.00802 198.566 9.10002 198.886 9.10002C199.238 9.10002 199.538 9.00002 199.786 8.80002L200.146 9.62802Z"/>
<path d="M201.539 3.64002H202.691V10H201.539V3.64002ZM202.115 2.41602C201.891 2.41602 201.703 2.34402 201.551 2.20002C201.407 2.05602 201.335 1.88002 201.335 1.67202C201.335 1.46402 201.407 1.28802 201.551 1.14402C201.703 0.992016 201.891 0.916016 202.115 0.916016C202.339 0.916016 202.523 0.988016 202.667 1.13202C202.819 1.26802 202.895 1.44002 202.895 1.64802C202.895 1.86402 202.819 2.04802 202.667 2.20002C202.523 2.34402 202.339 2.41602 202.115 2.41602Z"/>
<path d="M208.287 3.58002C209.095 3.58002 209.735 3.81602 210.207 4.28802C210.687 4.75202 210.927 5.43602 210.927 6.34002V10H209.775V6.47202C209.775 5.85602 209.627 5.39202 209.331 5.08002C209.035 4.76802 208.611 4.61202 208.059 4.61202C207.435 4.61202 206.943 4.79602 206.583 5.16402C206.223 5.52402 206.043 6.04402 206.043 6.72402V10H204.891V3.64002H205.995V4.60002C206.227 4.27202 206.539 4.02002 206.931 3.84402C207.331 3.66802 207.783 3.58002 208.287 3.58002Z"/>
<path d="M219.178 3.64002V9.13602C219.178 10.248 218.902 11.068 218.35 11.596C217.798 12.132 216.974 12.4 215.878 12.4C215.278 12.4 214.706 12.316 214.162 12.148C213.618 11.988 213.178 11.756 212.842 11.452L213.394 10.564C213.69 10.82 214.054 11.02 214.486 11.164C214.926 11.316 215.378 11.392 215.842 11.392C216.586 11.392 217.134 11.216 217.486 10.864C217.846 10.512 218.026 9.97602 218.026 9.25602V8.75202C217.754 9.08002 217.418 9.32802 217.018 9.49602C216.626 9.65602 216.198 9.73602 215.734 9.73602C215.126 9.73602 214.574 9.60802 214.078 9.35202C213.59 9.08802 213.206 8.72402 212.926 8.26002C212.646 7.78802 212.506 7.25202 212.506 6.65202C212.506 6.05202 212.646 5.52002 212.926 5.05602C213.206 4.58402 213.59 4.22002 214.078 3.96402C214.574 3.70802 215.126 3.58002 215.734 3.58002C216.214 3.58002 216.658 3.66802 217.066 3.84402C217.482 4.02002 217.822 4.28002 218.086 4.62402V3.64002H219.178ZM215.866 8.72802C216.282 8.72802 216.654 8.64002 216.982 8.46402C217.318 8.28802 217.578 8.04402 217.762 7.73202C217.954 7.41202 218.05 7.05202 218.05 6.65202C218.05 6.03602 217.846 5.54002 217.438 5.16402C217.03 4.78002 216.506 4.58802 215.866 4.58802C215.218 4.58802 214.69 4.78002 214.282 5.16402C213.874 5.54002 213.67 6.03602 213.67 6.65202C213.67 7.05202 213.762 7.41202 213.946 7.73202C214.138 8.04402 214.398 8.28802 214.726 8.46402C215.062 8.64002 215.442 8.72802 215.866 8.72802Z"/>
<path d="M226.918 3.58002C227.798 3.58002 228.47 3.79602 228.934 4.22802C229.406 4.66002 229.642 5.30402 229.642 6.16002V10H228.55V9.16002C228.358 9.45602 228.082 9.68402 227.722 9.84402C227.37 9.99602 226.95 10.072 226.462 10.072C225.75 10.072 225.178 9.90002 224.746 9.55602C224.322 9.21202 224.11 8.76002 224.11 8.20002C224.11 7.64002 224.314 7.19202 224.722 6.85602C225.13 6.51202 225.778 6.34002 226.666 6.34002H228.49V6.11202C228.49 5.61602 228.346 5.23602 228.058 4.97202C227.77 4.70802 227.346 4.57602 226.786 4.57602C226.41 4.57602 226.042 4.64002 225.682 4.76802C225.322 4.88802 225.018 5.05202 224.77 5.26002L224.29 4.39602C224.618 4.13202 225.01 3.93202 225.466 3.79602C225.922 3.65202 226.406 3.58002 226.918 3.58002ZM226.654 9.18402C227.094 9.18402 227.474 9.08802 227.794 8.89602C228.114 8.69602 228.346 8.41602 228.49 8.05602V7.16802H226.714C225.738 7.16802 225.25 7.49602 225.25 8.15202C225.25 8.47202 225.374 8.72402 225.622 8.90802C225.87 9.09202 226.214 9.18402 226.654 9.18402Z"/>
<path d="M235.169 3.58002C235.977 3.58002 236.617 3.81602 237.089 4.28802C237.569 4.75202 237.809 5.43602 237.809 6.34002V10H236.657V6.47202C236.657 5.85602 236.509 5.39202 236.213 5.08002C235.917 4.76802 235.493 4.61202 234.941 4.61202C234.317 4.61202 233.825 4.79602 233.465 5.16402C233.105 5.52402 232.925 6.04402 232.925 6.72402V10H231.773V3.64002H232.877V4.60002C233.109 4.27202 233.421 4.02002 233.813 3.84402C234.213 3.66802 234.665 3.58002 235.169 3.58002Z"/>
<path d="M245.977 1.09602V10H244.873V8.99202C244.617 9.34402 244.293 9.61202 243.901 9.79602C243.509 9.98002 243.077 10.072 242.605 10.072C241.989 10.072 241.437 9.93602 240.949 9.66402C240.461 9.39202 240.077 9.01202 239.797 8.52402C239.525 8.02802 239.389 7.46002 239.389 6.82002C239.389 6.18002 239.525 5.61602 239.797 5.12802C240.077 4.64002 240.461 4.26002 240.949 3.98802C241.437 3.71602 241.989 3.58002 242.605 3.58002C243.061 3.58002 243.481 3.66802 243.865 3.84402C244.249 4.01202 244.569 4.26402 244.825 4.60002V1.09602H245.977ZM242.701 9.06402C243.101 9.06402 243.465 8.97202 243.793 8.78802C244.121 8.59602 244.377 8.33202 244.561 7.99602C244.745 7.65202 244.837 7.26002 244.837 6.82002C244.837 6.38002 244.745 5.99202 244.561 5.65602C244.377 5.31202 244.121 5.04802 243.793 4.86402C243.465 4.68002 243.101 4.58802 242.701 4.58802C242.293 4.58802 241.925 4.68002 241.597 4.86402C241.277 5.04802 241.021 5.31202 240.829 5.65602C240.645 5.99202 240.553 6.38002 240.553 6.82002C240.553 7.26002 240.645 7.65202 240.829 7.99602C241.021 8.33202 241.277 8.59602 241.597 8.78802C241.925 8.97202 242.293 9.06402 242.701 9.06402Z"/>
<path d="M119.914 20.644C120.402 20.78 120.786 21.028 121.066 21.388C121.346 21.74 121.486 22.188 121.486 22.732C121.486 23.46 121.21 24.02 120.658 24.412C120.114 24.804 119.318 25 118.27 25H114.262V16.6H118.03C118.99 16.6 119.73 16.792 120.25 17.176C120.778 17.56 121.042 18.092 121.042 18.772C121.042 19.212 120.938 19.592 120.73 19.912C120.53 20.232 120.258 20.476 119.914 20.644ZM115.462 17.572V20.26H117.922C118.538 20.26 119.01 20.148 119.338 19.924C119.674 19.692 119.842 19.356 119.842 18.916C119.842 18.476 119.674 18.144 119.338 17.92C119.01 17.688 118.538 17.572 117.922 17.572H115.462ZM118.222 24.028C118.902 24.028 119.414 23.916 119.758 23.692C120.102 23.468 120.274 23.116 120.274 22.636C120.274 21.7 119.59 21.232 118.222 21.232H115.462V24.028H118.222Z"/>
<path d="M129.104 18.64V25H128.012V24.04C127.78 24.368 127.472 24.624 127.088 24.808C126.712 24.984 126.3 25.072 125.852 25.072C125.004 25.072 124.336 24.84 123.848 24.376C123.36 23.904 123.116 23.212 123.116 22.3V18.64H124.268V22.168C124.268 22.784 124.416 23.252 124.712 23.572C125.008 23.884 125.432 24.04 125.984 24.04C126.592 24.04 127.072 23.856 127.424 23.488C127.776 23.12 127.952 22.6 127.952 21.928V18.64H129.104Z"/>
<path d="M133.121 25.072C132.601 25.072 132.101 25.004 131.621 24.868C131.141 24.724 130.765 24.544 130.493 24.328L130.973 23.416C131.253 23.616 131.593 23.776 131.993 23.896C132.393 24.016 132.797 24.076 133.205 24.076C134.213 24.076 134.717 23.788 134.717 23.212C134.717 23.02 134.649 22.868 134.513 22.756C134.377 22.644 134.205 22.564 133.997 22.516C133.797 22.46 133.509 22.4 133.133 22.336C132.621 22.256 132.201 22.164 131.873 22.06C131.553 21.956 131.277 21.78 131.045 21.532C130.813 21.284 130.697 20.936 130.697 20.488C130.697 19.912 130.937 19.452 131.417 19.108C131.897 18.756 132.541 18.58 133.349 18.58C133.773 18.58 134.197 18.632 134.621 18.736C135.045 18.84 135.393 18.98 135.665 19.156L135.173 20.068C134.653 19.732 134.041 19.564 133.337 19.564C132.849 19.564 132.477 19.644 132.221 19.804C131.965 19.964 131.837 20.176 131.837 20.44C131.837 20.648 131.909 20.812 132.053 20.932C132.197 21.052 132.373 21.14 132.581 21.196C132.797 21.252 133.097 21.316 133.481 21.388C133.993 21.476 134.405 21.572 134.717 21.676C135.037 21.772 135.309 21.94 135.533 22.18C135.757 22.42 135.869 22.756 135.869 23.188C135.869 23.764 135.621 24.224 135.125 24.568C134.637 24.904 133.969 25.072 133.121 25.072Z"/>
<path d="M137.309 18.64H138.461V25H137.309V18.64ZM137.885 17.416C137.661 17.416 137.473 17.344 137.321 17.2C137.177 17.056 137.105 16.88 137.105 16.672C137.105 16.464 137.177 16.288 137.321 16.144C137.473 15.992 137.661 15.916 137.885 15.916C138.109 15.916 138.293 15.988 138.437 16.132C138.589 16.268 138.665 16.44 138.665 16.648C138.665 16.864 138.589 17.048 138.437 17.2C138.293 17.344 138.109 17.416 137.885 17.416Z"/>
<path d="M144.056 18.58C144.864 18.58 145.504 18.816 145.976 19.288C146.456 19.752 146.696 20.436 146.696 21.34V25H145.544V21.472C145.544 20.856 145.396 20.392 145.1 20.08C144.804 19.768 144.38 19.612 143.828 19.612C143.204 19.612 142.712 19.796 142.352 20.164C141.992 20.524 141.812 21.044 141.812 21.724V25H140.66V18.64H141.764V19.6C141.996 19.272 142.308 19.02 142.7 18.844C143.1 18.668 143.552 18.58 144.056 18.58Z"/>
<path d="M154.611 21.856C154.611 21.944 154.603 22.06 154.587 22.204H149.427C149.499 22.764 149.743 23.216 150.159 23.56C150.583 23.896 151.107 24.064 151.731 24.064C152.491 24.064 153.103 23.808 153.567 23.296L154.203 24.04C153.915 24.376 153.555 24.632 153.123 24.808C152.699 24.984 152.223 25.072 151.695 25.072C151.023 25.072 150.427 24.936 149.907 24.664C149.387 24.384 148.983 23.996 148.695 23.5C148.415 23.004 148.275 22.444 148.275 21.82C148.275 21.204 148.411 20.648 148.683 20.152C148.963 19.656 149.343 19.272 149.823 19C150.311 18.72 150.859 18.58 151.467 18.58C152.075 18.58 152.615 18.72 153.087 19C153.567 19.272 153.939 19.656 154.203 20.152C154.475 20.648 154.611 21.216 154.611 21.856ZM151.467 19.552C150.915 19.552 150.451 19.72 150.075 20.056C149.707 20.392 149.491 20.832 149.427 21.376H153.507C153.443 20.84 153.223 20.404 152.847 20.068C152.479 19.724 152.019 19.552 151.467 19.552Z"/>
<path d="M158.035 25.072C157.515 25.072 157.015 25.004 156.535 24.868C156.055 24.724 155.679 24.544 155.407 24.328L155.887 23.416C156.167 23.616 156.507 23.776 156.907 23.896C157.307 24.016 157.711 24.076 158.119 24.076C159.127 24.076 159.631 23.788 159.631 23.212C159.631 23.02 159.563 22.868 159.427 22.756C159.291 22.644 159.119 22.564 158.911 22.516C158.711 22.46 158.423 22.4 158.047 22.336C157.535 22.256 157.115 22.164 156.787 22.06C156.467 21.956 156.191 21.78 155.959 21.532C155.727 21.284 155.611 20.936 155.611 20.488C155.611 19.912 155.851 19.452 156.331 19.108C156.811 18.756 157.455 18.58 158.263 18.58C158.687 18.58 159.111 18.632 159.535 18.736C159.959 18.84 160.307 18.98 160.579 19.156L160.087 20.068C159.567 19.732 158.955 19.564 158.251 19.564C157.763 19.564 157.391 19.644 157.135 19.804C156.879 19.964 156.751 20.176 156.751 20.44C156.751 20.648 156.823 20.812 156.967 20.932C157.111 21.052 157.287 21.14 157.495 21.196C157.711 21.252 158.011 21.316 158.395 21.388C158.907 21.476 159.319 21.572 159.631 21.676C159.951 21.772 160.223 21.94 160.447 22.18C160.671 22.42 160.783 22.756 160.783 23.188C160.783 23.764 160.535 24.224 160.039 24.568C159.551 24.904 158.883 25.072 158.035 25.072Z"/>
<path d="M164.047 25.072C163.527 25.072 163.027 25.004 162.547 24.868C162.067 24.724 161.691 24.544 161.419 24.328L161.899 23.416C162.179 23.616 162.519 23.776 162.919 23.896C163.319 24.016 163.723 24.076 164.131 24.076C165.139 24.076 165.643 23.788 165.643 23.212C165.643 23.02 165.575 22.868 165.439 22.756C165.303 22.644 165.131 22.564 164.923 22.516C164.723 22.46 164.435 22.4 164.059 22.336C163.547 22.256 163.127 22.164 162.799 22.06C162.479 21.956 162.203 21.78 161.971 21.532C161.739 21.284 161.623 20.936 161.623 20.488C161.623 19.912 161.863 19.452 162.343 19.108C162.823 18.756 163.467 18.58 164.275 18.58C164.699 18.58 165.123 18.632 165.547 18.736C165.971 18.84 166.319 18.98 166.591 19.156L166.099 20.068C165.579 19.732 164.967 19.564 164.263 19.564C163.775 19.564 163.403 19.644 163.147 19.804C162.891 19.964 162.763 20.176 162.763 20.44C162.763 20.648 162.835 20.812 162.979 20.932C163.123 21.052 163.299 21.14 163.507 21.196C163.723 21.252 164.023 21.316 164.407 21.388C164.919 21.476 165.331 21.572 165.643 21.676C165.963 21.772 166.235 21.94 166.459 22.18C166.683 22.42 166.795 22.756 166.795 23.188C166.795 23.764 166.547 24.224 166.051 24.568C165.563 24.904 164.895 25.072 164.047 25.072Z"/>
<path d="M176.977 22.9H172.513L171.589 25H170.353L174.157 16.6H175.345L179.161 25H177.901L176.977 22.9ZM176.557 21.94L174.745 17.824L172.933 21.94H176.557Z"/>
<path d="M182.959 25.072C182.311 25.072 181.731 24.932 181.219 24.652C180.715 24.372 180.319 23.988 180.031 23.5C179.743 23.004 179.599 22.444 179.599 21.82C179.599 21.196 179.743 20.64 180.031 20.152C180.319 19.656 180.715 19.272 181.219 19C181.731 18.72 182.311 18.58 182.959 18.58C183.535 18.58 184.047 18.696 184.495 18.928C184.951 19.16 185.303 19.496 185.551 19.936L184.675 20.5C184.475 20.196 184.227 19.968 183.931 19.816C183.635 19.664 183.307 19.588 182.947 19.588C182.531 19.588 182.155 19.68 181.819 19.864C181.491 20.048 181.231 20.312 181.039 20.656C180.855 20.992 180.763 21.38 180.763 21.82C180.763 22.268 180.855 22.664 181.039 23.008C181.231 23.344 181.491 23.604 181.819 23.788C182.155 23.972 182.531 24.064 182.947 24.064C183.307 24.064 183.635 23.988 183.931 23.836C184.227 23.684 184.475 23.456 184.675 23.152L185.551 23.704C185.303 24.144 184.951 24.484 184.495 24.724C184.047 24.956 183.535 25.072 182.959 25.072Z"/>
<path d="M189.359 18.58C190.239 18.58 190.911 18.796 191.375 19.228C191.847 19.66 192.083 20.304 192.083 21.16V25H190.991V24.16C190.799 24.456 190.523 24.684 190.163 24.844C189.811 24.996 189.391 25.072 188.903 25.072C188.191 25.072 187.619 24.9 187.187 24.556C186.763 24.212 186.551 23.76 186.551 23.2C186.551 22.64 186.755 22.192 187.163 21.856C187.571 21.512 188.219 21.34 189.107 21.34H190.931V21.112C190.931 20.616 190.787 20.236 190.499 19.972C190.211 19.708 189.787 19.576 189.227 19.576C188.851 19.576 188.483 19.64 188.123 19.768C187.763 19.888 187.459 20.052 187.211 20.26L186.731 19.396C187.059 19.132 187.451 18.932 187.907 18.796C188.363 18.652 188.847 18.58 189.359 18.58ZM189.095 24.184C189.535 24.184 189.915 24.088 190.235 23.896C190.555 23.696 190.787 23.416 190.931 23.056V22.168H189.155C188.179 22.168 187.691 22.496 187.691 23.152C187.691 23.472 187.815 23.724 188.063 23.908C188.311 24.092 188.655 24.184 189.095 24.184Z"/>
<path d="M200.25 16.096V25H199.146V23.992C198.89 24.344 198.566 24.612 198.174 24.796C197.782 24.98 197.35 25.072 196.878 25.072C196.262 25.072 195.71 24.936 195.222 24.664C194.734 24.392 194.35 24.012 194.07 23.524C193.798 23.028 193.662 22.46 193.662 21.82C193.662 21.18 193.798 20.616 194.07 20.128C194.35 19.64 194.734 19.26 195.222 18.988C195.71 18.716 196.262 18.58 196.878 18.58C197.334 18.58 197.754 18.668 198.138 18.844C198.522 19.012 198.842 19.264 199.098 19.6V16.096H200.25ZM196.974 24.064C197.374 24.064 197.738 23.972 198.066 23.788C198.394 23.596 198.65 23.332 198.834 22.996C199.018 22.652 199.11 22.26 199.11 21.82C199.11 21.38 199.018 20.992 198.834 20.656C198.65 20.312 198.394 20.048 198.066 19.864C197.738 19.68 197.374 19.588 196.974 19.588C196.566 19.588 196.198 19.68 195.87 19.864C195.55 20.048 195.294 20.312 195.102 20.656C194.918 20.992 194.826 21.38 194.826 21.82C194.826 22.26 194.918 22.652 195.102 22.996C195.294 23.332 195.55 23.596 195.87 23.788C196.198 23.972 196.566 24.064 196.974 24.064Z"/>
<path d="M208.178 21.856C208.178 21.944 208.17 22.06 208.154 22.204H202.994C203.066 22.764 203.31 23.216 203.726 23.56C204.15 23.896 204.674 24.064 205.298 24.064C206.058 24.064 206.67 23.808 207.134 23.296L207.77 24.04C207.482 24.376 207.122 24.632 206.69 24.808C206.266 24.984 205.79 25.072 205.262 25.072C204.59 25.072 203.994 24.936 203.474 24.664C202.954 24.384 202.55 23.996 202.262 23.5C201.982 23.004 201.842 22.444 201.842 21.82C201.842 21.204 201.978 20.648 202.25 20.152C202.53 19.656 202.91 19.272 203.39 19C203.878 18.72 204.426 18.58 205.034 18.58C205.642 18.58 206.182 18.72 206.654 19C207.134 19.272 207.506 19.656 207.77 20.152C208.042 20.648 208.178 21.216 208.178 21.856ZM205.034 19.552C204.482 19.552 204.018 19.72 203.642 20.056C203.274 20.392 203.058 20.832 202.994 21.376H207.074C207.01 20.84 206.79 20.404 206.414 20.068C206.046 19.724 205.586 19.552 205.034 19.552Z"/>
<path d="M217.733 18.58C218.533 18.58 219.165 18.812 219.629 19.276C220.101 19.74 220.337 20.428 220.337 21.34V25H219.185V21.472C219.185 20.856 219.041 20.392 218.753 20.08C218.473 19.768 218.069 19.612 217.541 19.612C216.957 19.612 216.493 19.796 216.149 20.164C215.805 20.524 215.633 21.044 215.633 21.724V25H214.481V21.472C214.481 20.856 214.337 20.392 214.049 20.08C213.769 19.768 213.365 19.612 212.837 19.612C212.253 19.612 211.789 19.796 211.445 20.164C211.101 20.524 210.929 21.044 210.929 21.724V25H209.777V18.64H210.881V19.588C211.113 19.26 211.417 19.012 211.793 18.844C212.169 18.668 212.597 18.58 213.077 18.58C213.573 18.58 214.013 18.68 214.397 18.88C214.781 19.08 215.077 19.372 215.285 19.756C215.525 19.388 215.857 19.1 216.281 18.892C216.713 18.684 217.197 18.58 217.733 18.58Z"/>
<path d="M227.968 18.64L224.884 25.636C224.612 26.284 224.292 26.74 223.924 27.004C223.564 27.268 223.128 27.4 222.616 27.4C222.304 27.4 222 27.348 221.704 27.244C221.416 27.148 221.176 27.004 220.984 26.812L221.476 25.948C221.804 26.26 222.184 26.416 222.616 26.416C222.896 26.416 223.128 26.34 223.312 26.188C223.504 26.044 223.676 25.792 223.828 25.432L224.032 24.988L221.224 18.64H222.424L224.644 23.728L226.84 18.64H227.968Z"/>
</mask>
<path d="M122.05 10L122.038 3.88002L119.002 8.98002H118.45L115.414 3.91602V10H114.262V1.60002H115.246L118.75 7.50402L122.206 1.60002H123.19L123.202 10H122.05Z" fill="#1E376A"/>
<path d="M128.279 10.072C127.647 10.072 127.079 9.93202 126.575 9.65202C126.071 9.37202 125.675 8.98802 125.387 8.50002C125.107 8.00402 124.967 7.44402 124.967 6.82002C124.967 6.19602 125.107 5.64002 125.387 5.15202C125.675 4.65602 126.071 4.27202 126.575 4.00002C127.079 3.72002 127.647 3.58002 128.279 3.58002C128.911 3.58002 129.475 3.72002 129.971 4.00002C130.475 4.27202 130.867 4.65602 131.147 5.15202C131.435 5.64002 131.579 6.19602 131.579 6.82002C131.579 7.44402 131.435 8.00402 131.147 8.50002C130.867 8.98802 130.475 9.37202 129.971 9.65202C129.475 9.93202 128.911 10.072 128.279 10.072ZM128.279 9.06402C128.687 9.06402 129.051 8.97202 129.371 8.78802C129.699 8.59602 129.955 8.33202 130.139 7.99602C130.323 7.65202 130.415 7.26002 130.415 6.82002C130.415 6.38002 130.323 5.99202 130.139 5.65602C129.955 5.31202 129.699 5.04802 129.371 4.86402C129.051 4.68002 128.687 4.58802 128.279 4.58802C127.871 4.58802 127.503 4.68002 127.175 4.86402C126.855 5.04802 126.599 5.31202 126.407 5.65602C126.223 5.99202 126.131 6.38002 126.131 6.82002C126.131 7.26002 126.223 7.65202 126.407 7.99602C126.599 8.33202 126.855 8.59602 127.175 8.78802C127.503 8.97202 127.871 9.06402 128.279 9.06402Z" fill="#1E376A"/>
<path d="M136.544 3.58002C137.16 3.58002 137.712 3.71602 138.2 3.98802C138.688 4.26002 139.068 4.64002 139.34 5.12802C139.62 5.61602 139.76 6.18002 139.76 6.82002C139.76 7.46002 139.62 8.02802 139.34 8.52402C139.068 9.01202 138.688 9.39202 138.2 9.66402C137.712 9.93602 137.16 10.072 136.544 10.072C136.072 10.072 135.64 9.98002 135.248 9.79602C134.856 9.61202 134.532 9.34402 134.276 8.99202V10H133.172V1.09602H134.324V4.60002C134.58 4.26402 134.9 4.01202 135.284 3.84402C135.668 3.66802 136.088 3.58002 136.544 3.58002ZM136.448 9.06402C136.856 9.06402 137.22 8.97202 137.54 8.78802C137.868 8.59602 138.124 8.33202 138.308 7.99602C138.5 7.65202 138.596 7.26002 138.596 6.82002C138.596 6.38002 138.5 5.99202 138.308 5.65602C138.124 5.31202 137.868 5.04802 137.54 4.86402C137.22 4.68002 136.856 4.58802 136.448 4.58802C136.048 4.58802 135.684 4.68002 135.356 4.86402C135.028 5.04802 134.772 5.31202 134.588 5.65602C134.404 5.99202 134.312 6.38002 134.312 6.82002C134.312 7.26002 134.404 7.65202 134.588 7.99602C134.772 8.33202 135.028 8.59602 135.356 8.78802C135.684 8.97202 136.048 9.06402 136.448 9.06402Z" fill="#1E376A"/>
<path d="M141.352 3.64002H142.504V10H141.352V3.64002ZM141.928 2.41602C141.704 2.41602 141.516 2.34402 141.364 2.20002C141.22 2.05602 141.148 1.88002 141.148 1.67202C141.148 1.46402 141.22 1.28802 141.364 1.14402C141.516 0.992016 141.704 0.916016 141.928 0.916016C142.152 0.916016 142.336 0.988016 142.48 1.13202C142.632 1.26802 142.708 1.44002 142.708 1.64802C142.708 1.86402 142.632 2.04802 142.48 2.20002C142.336 2.34402 142.152 2.41602 141.928 2.41602Z" fill="#1E376A"/>
<path d="M144.703 1.09602H145.855V10H144.703V1.09602Z" fill="#1E376A"/>
<path d="M153.803 6.85602C153.803 6.94402 153.795 7.06002 153.779 7.20402H148.619C148.691 7.76402 148.935 8.21602 149.351 8.56002C149.775 8.89602 150.299 9.06402 150.923 9.06402C151.683 9.06402 152.295 8.80802 152.759 8.29602L153.395 9.04002C153.107 9.37602 152.747 9.63202 152.315 9.80802C151.891 9.98402 151.415 10.072 150.887 10.072C150.215 10.072 149.619 9.93602 149.099 9.66402C148.579 9.38402 148.175 8.99602 147.887 8.50002C147.607 8.00402 147.467 7.44402 147.467 6.82002C147.467 6.20402 147.603 5.64802 147.875 5.15202C148.155 4.65602 148.535 4.27202 149.015 4.00002C149.503 3.72002 150.051 3.58002 150.659 3.58002C151.267 3.58002 151.807 3.72002 152.279 4.00002C152.759 4.27202 153.131 4.65602 153.395 5.15202C153.667 5.64802 153.803 6.21602 153.803 6.85602ZM150.659 4.55202C150.107 4.55202 149.643 4.72002 149.267 5.05602C148.899 5.39202 148.683 5.83202 148.619 6.37602H152.699C152.635 5.84002 152.415 5.40402 152.039 5.06802C151.671 4.72402 151.211 4.55202 150.659 4.55202Z" fill="#1E376A"/>
<path d="M166.581 10L166.569 3.88002L163.533 8.98002H162.981L159.945 3.91602V10H158.793V1.60002H159.777L163.281 7.50402L166.737 1.60002H167.721L167.733 10H166.581Z" fill="#1E376A"/>
<path d="M172.402 3.58002C173.282 3.58002 173.954 3.79602 174.418 4.22802C174.89 4.66002 175.126 5.30402 175.126 6.16002V10H174.034V9.16002C173.842 9.45602 173.566 9.68402 173.206 9.84402C172.854 9.99602 172.434 10.072 171.946 10.072C171.234 10.072 170.662 9.90002 170.23 9.55602C169.806 9.21202 169.594 8.76002 169.594 8.20002C169.594 7.64002 169.798 7.19202 170.206 6.85602C170.614 6.51202 171.262 6.34002 172.15 6.34002H173.974V6.11202C173.974 5.61602 173.83 5.23602 173.542 4.97202C173.254 4.70802 172.83 4.57602 172.27 4.57602C171.894 4.57602 171.526 4.64002 171.166 4.76802C170.806 4.88802 170.502 5.05202 170.254 5.26002L169.774 4.39602C170.102 4.13202 170.494 3.93202 170.95 3.79602C171.406 3.65202 171.89 3.58002 172.402 3.58002ZM172.138 9.18402C172.578 9.18402 172.958 9.08802 173.278 8.89602C173.598 8.69602 173.83 8.41602 173.974 8.05602V7.16802H172.198C171.222 7.16802 170.734 7.49602 170.734 8.15202C170.734 8.47202 170.858 8.72402 171.106 8.90802C171.354 9.09202 171.698 9.18402 172.138 9.18402Z" fill="#1E376A"/>
<path d="M178.362 4.70802C178.562 4.34002 178.858 4.06002 179.25 3.86802C179.642 3.67602 180.118 3.58002 180.678 3.58002V4.69602C180.614 4.68802 180.526 4.68402 180.414 4.68402C179.79 4.68402 179.298 4.87202 178.938 5.24802C178.586 5.61602 178.41 6.14402 178.41 6.83202V10H177.258V3.64002H178.362V4.70802Z" fill="#1E376A"/>
<path d="M184.57 7.03602L183.25 8.26002V10H182.098V1.09602H183.25V6.80802L186.718 3.64002H188.11L185.434 6.26802L188.374 10H186.958L184.57 7.03602Z" fill="#1E376A"/>
<path d="M194.971 6.85602C194.971 6.94402 194.963 7.06002 194.947 7.20402H189.787C189.859 7.76402 190.103 8.21602 190.519 8.56002C190.943 8.89602 191.467 9.06402 192.091 9.06402C192.851 9.06402 193.463 8.80802 193.927 8.29602L194.563 9.04002C194.275 9.37602 193.915 9.63202 193.483 9.80802C193.059 9.98402 192.583 10.072 192.055 10.072C191.383 10.072 190.787 9.93602 190.267 9.66402C189.747 9.38402 189.343 8.99602 189.055 8.50002C188.775 8.00402 188.635 7.44402 188.635 6.82002C188.635 6.20402 188.771 5.64802 189.043 5.15202C189.323 4.65602 189.703 4.27202 190.183 4.00002C190.671 3.72002 191.219 3.58002 191.827 3.58002C192.435 3.58002 192.975 3.72002 193.447 4.00002C193.927 4.27202 194.299 4.65602 194.563 5.15202C194.835 5.64802 194.971 6.21602 194.971 6.85602ZM191.827 4.55202C191.275 4.55202 190.811 4.72002 190.435 5.05602C190.067 5.39202 189.851 5.83202 189.787 6.37602H193.867C193.803 5.84002 193.583 5.40402 193.207 5.06802C192.839 4.72402 192.379 4.55202 191.827 4.55202Z" fill="#1E376A"/>
<path d="M200.146 9.62802C199.978 9.77202 199.77 9.88402 199.522 9.96402C199.274 10.036 199.018 10.072 198.754 10.072C198.114 10.072 197.618 9.90002 197.266 9.55602C196.914 9.21202 196.738 8.72002 196.738 8.08002V4.58802H195.658V3.64002H196.738V2.24802H197.89V3.64002H199.714V4.58802H197.89V8.03202C197.89 8.37602 197.974 8.64002 198.142 8.82402C198.318 9.00802 198.566 9.10002 198.886 9.10002C199.238 9.10002 199.538 9.00002 199.786 8.80002L200.146 9.62802Z" fill="#1E376A"/>
<path d="M201.539 3.64002H202.691V10H201.539V3.64002ZM202.115 2.41602C201.891 2.41602 201.703 2.34402 201.551 2.20002C201.407 2.05602 201.335 1.88002 201.335 1.67202C201.335 1.46402 201.407 1.28802 201.551 1.14402C201.703 0.992016 201.891 0.916016 202.115 0.916016C202.339 0.916016 202.523 0.988016 202.667 1.13202C202.819 1.26802 202.895 1.44002 202.895 1.64802C202.895 1.86402 202.819 2.04802 202.667 2.20002C202.523 2.34402 202.339 2.41602 202.115 2.41602Z" fill="#1E376A"/>
<path d="M208.287 3.58002C209.095 3.58002 209.735 3.81602 210.207 4.28802C210.687 4.75202 210.927 5.43602 210.927 6.34002V10H209.775V6.47202C209.775 5.85602 209.627 5.39202 209.331 5.08002C209.035 4.76802 208.611 4.61202 208.059 4.61202C207.435 4.61202 206.943 4.79602 206.583 5.16402C206.223 5.52402 206.043 6.04402 206.043 6.72402V10H204.891V3.64002H205.995V4.60002C206.227 4.27202 206.539 4.02002 206.931 3.84402C207.331 3.66802 207.783 3.58002 208.287 3.58002Z" fill="#1E376A"/>
<path d="M219.178 3.64002V9.13602C219.178 10.248 218.902 11.068 218.35 11.596C217.798 12.132 216.974 12.4 215.878 12.4C215.278 12.4 214.706 12.316 214.162 12.148C213.618 11.988 213.178 11.756 212.842 11.452L213.394 10.564C213.69 10.82 214.054 11.02 214.486 11.164C214.926 11.316 215.378 11.392 215.842 11.392C216.586 11.392 217.134 11.216 217.486 10.864C217.846 10.512 218.026 9.97602 218.026 9.25602V8.75202C217.754 9.08002 217.418 9.32802 217.018 9.49602C216.626 9.65602 216.198 9.73602 215.734 9.73602C215.126 9.73602 214.574 9.60802 214.078 9.35202C213.59 9.08802 213.206 8.72402 212.926 8.26002C212.646 7.78802 212.506 7.25202 212.506 6.65202C212.506 6.05202 212.646 5.52002 212.926 5.05602C213.206 4.58402 213.59 4.22002 214.078 3.96402C214.574 3.70802 215.126 3.58002 215.734 3.58002C216.214 3.58002 216.658 3.66802 217.066 3.84402C217.482 4.02002 217.822 4.28002 218.086 4.62402V3.64002H219.178ZM215.866 8.72802C216.282 8.72802 216.654 8.64002 216.982 8.46402C217.318 8.28802 217.578 8.04402 217.762 7.73202C217.954 7.41202 218.05 7.05202 218.05 6.65202C218.05 6.03602 217.846 5.54002 217.438 5.16402C217.03 4.78002 216.506 4.58802 215.866 4.58802C215.218 4.58802 214.69 4.78002 214.282 5.16402C213.874 5.54002 213.67 6.03602 213.67 6.65202C213.67 7.05202 213.762 7.41202 213.946 7.73202C214.138 8.04402 214.398 8.28802 214.726 8.46402C215.062 8.64002 215.442 8.72802 215.866 8.72802Z" fill="#1E376A"/>
<path d="M226.918 3.58002C227.798 3.58002 228.47 3.79602 228.934 4.22802C229.406 4.66002 229.642 5.30402 229.642 6.16002V10H228.55V9.16002C228.358 9.45602 228.082 9.68402 227.722 9.84402C227.37 9.99602 226.95 10.072 226.462 10.072C225.75 10.072 225.178 9.90002 224.746 9.55602C224.322 9.21202 224.11 8.76002 224.11 8.20002C224.11 7.64002 224.314 7.19202 224.722 6.85602C225.13 6.51202 225.778 6.34002 226.666 6.34002H228.49V6.11202C228.49 5.61602 228.346 5.23602 228.058 4.97202C227.77 4.70802 227.346 4.57602 226.786 4.57602C226.41 4.57602 226.042 4.64002 225.682 4.76802C225.322 4.88802 225.018 5.05202 224.77 5.26002L224.29 4.39602C224.618 4.13202 225.01 3.93202 225.466 3.79602C225.922 3.65202 226.406 3.58002 226.918 3.58002ZM226.654 9.18402C227.094 9.18402 227.474 9.08802 227.794 8.89602C228.114 8.69602 228.346 8.41602 228.49 8.05602V7.16802H226.714C225.738 7.16802 225.25 7.49602 225.25 8.15202C225.25 8.47202 225.374 8.72402 225.622 8.90802C225.87 9.09202 226.214 9.18402 226.654 9.18402Z" fill="#1E376A"/>
<path d="M235.169 3.58002C235.977 3.58002 236.617 3.81602 237.089 4.28802C237.569 4.75202 237.809 5.43602 237.809 6.34002V10H236.657V6.47202C236.657 5.85602 236.509 5.39202 236.213 5.08002C235.917 4.76802 235.493 4.61202 234.941 4.61202C234.317 4.61202 233.825 4.79602 233.465 5.16402C233.105 5.52402 232.925 6.04402 232.925 6.72402V10H231.773V3.64002H232.877V4.60002C233.109 4.27202 233.421 4.02002 233.813 3.84402C234.213 3.66802 234.665 3.58002 235.169 3.58002Z" fill="#1E376A"/>
<path d="M245.977 1.09602V10H244.873V8.99202C244.617 9.34402 244.293 9.61202 243.901 9.79602C243.509 9.98002 243.077 10.072 242.605 10.072C241.989 10.072 241.437 9.93602 240.949 9.66402C240.461 9.39202 240.077 9.01202 239.797 8.52402C239.525 8.02802 239.389 7.46002 239.389 6.82002C239.389 6.18002 239.525 5.61602 239.797 5.12802C240.077 4.64002 240.461 4.26002 240.949 3.98802C241.437 3.71602 241.989 3.58002 242.605 3.58002C243.061 3.58002 243.481 3.66802 243.865 3.84402C244.249 4.01202 244.569 4.26402 244.825 4.60002V1.09602H245.977ZM242.701 9.06402C243.101 9.06402 243.465 8.97202 243.793 8.78802C244.121 8.59602 244.377 8.33202 244.561 7.99602C244.745 7.65202 244.837 7.26002 244.837 6.82002C244.837 6.38002 244.745 5.99202 244.561 5.65602C244.377 5.31202 244.121 5.04802 243.793 4.86402C243.465 4.68002 243.101 4.58802 242.701 4.58802C242.293 4.58802 241.925 4.68002 241.597 4.86402C241.277 5.04802 241.021 5.31202 240.829 5.65602C240.645 5.99202 240.553 6.38002 240.553 6.82002C240.553 7.26002 240.645 7.65202 240.829 7.99602C241.021 8.33202 241.277 8.59602 241.597 8.78802C241.925 8.97202 242.293 9.06402 242.701 9.06402Z" fill="#1E376A"/>
<path d="M119.914 20.644C120.402 20.78 120.786 21.028 121.066 21.388C121.346 21.74 121.486 22.188 121.486 22.732C121.486 23.46 121.21 24.02 120.658 24.412C120.114 24.804 119.318 25 118.27 25H114.262V16.6H118.03C118.99 16.6 119.73 16.792 120.25 17.176C120.778 17.56 121.042 18.092 121.042 18.772C121.042 19.212 120.938 19.592 120.73 19.912C120.53 20.232 120.258 20.476 119.914 20.644ZM115.462 17.572V20.26H117.922C118.538 20.26 119.01 20.148 119.338 19.924C119.674 19.692 119.842 19.356 119.842 18.916C119.842 18.476 119.674 18.144 119.338 17.92C119.01 17.688 118.538 17.572 117.922 17.572H115.462ZM118.222 24.028C118.902 24.028 119.414 23.916 119.758 23.692C120.102 23.468 120.274 23.116 120.274 22.636C120.274 21.7 119.59 21.232 118.222 21.232H115.462V24.028H118.222Z" fill="#1E376A"/>
<path d="M129.104 18.64V25H128.012V24.04C127.78 24.368 127.472 24.624 127.088 24.808C126.712 24.984 126.3 25.072 125.852 25.072C125.004 25.072 124.336 24.84 123.848 24.376C123.36 23.904 123.116 23.212 123.116 22.3V18.64H124.268V22.168C124.268 22.784 124.416 23.252 124.712 23.572C125.008 23.884 125.432 24.04 125.984 24.04C126.592 24.04 127.072 23.856 127.424 23.488C127.776 23.12 127.952 22.6 127.952 21.928V18.64H129.104Z" fill="#1E376A"/>
<path d="M133.121 25.072C132.601 25.072 132.101 25.004 131.621 24.868C131.141 24.724 130.765 24.544 130.493 24.328L130.973 23.416C131.253 23.616 131.593 23.776 131.993 23.896C132.393 24.016 132.797 24.076 133.205 24.076C134.213 24.076 134.717 23.788 134.717 23.212C134.717 23.02 134.649 22.868 134.513 22.756C134.377 22.644 134.205 22.564 133.997 22.516C133.797 22.46 133.509 22.4 133.133 22.336C132.621 22.256 132.201 22.164 131.873 22.06C131.553 21.956 131.277 21.78 131.045 21.532C130.813 21.284 130.697 20.936 130.697 20.488C130.697 19.912 130.937 19.452 131.417 19.108C131.897 18.756 132.541 18.58 133.349 18.58C133.773 18.58 134.197 18.632 134.621 18.736C135.045 18.84 135.393 18.98 135.665 19.156L135.173 20.068C134.653 19.732 134.041 19.564 133.337 19.564C132.849 19.564 132.477 19.644 132.221 19.804C131.965 19.964 131.837 20.176 131.837 20.44C131.837 20.648 131.909 20.812 132.053 20.932C132.197 21.052 132.373 21.14 132.581 21.196C132.797 21.252 133.097 21.316 133.481 21.388C133.993 21.476 134.405 21.572 134.717 21.676C135.037 21.772 135.309 21.94 135.533 22.18C135.757 22.42 135.869 22.756 135.869 23.188C135.869 23.764 135.621 24.224 135.125 24.568C134.637 24.904 133.969 25.072 133.121 25.072Z" fill="#1E376A"/>
<path d="M137.309 18.64H138.461V25H137.309V18.64ZM137.885 17.416C137.661 17.416 137.473 17.344 137.321 17.2C137.177 17.056 137.105 16.88 137.105 16.672C137.105 16.464 137.177 16.288 137.321 16.144C137.473 15.992 137.661 15.916 137.885 15.916C138.109 15.916 138.293 15.988 138.437 16.132C138.589 16.268 138.665 16.44 138.665 16.648C138.665 16.864 138.589 17.048 138.437 17.2C138.293 17.344 138.109 17.416 137.885 17.416Z" fill="#1E376A"/>
<path d="M144.056 18.58C144.864 18.58 145.504 18.816 145.976 19.288C146.456 19.752 146.696 20.436 146.696 21.34V25H145.544V21.472C145.544 20.856 145.396 20.392 145.1 20.08C144.804 19.768 144.38 19.612 143.828 19.612C143.204 19.612 142.712 19.796 142.352 20.164C141.992 20.524 141.812 21.044 141.812 21.724V25H140.66V18.64H141.764V19.6C141.996 19.272 142.308 19.02 142.7 18.844C143.1 18.668 143.552 18.58 144.056 18.58Z" fill="#1E376A"/>
<path d="M154.611 21.856C154.611 21.944 154.603 22.06 154.587 22.204H149.427C149.499 22.764 149.743 23.216 150.159 23.56C150.583 23.896 151.107 24.064 151.731 24.064C152.491 24.064 153.103 23.808 153.567 23.296L154.203 24.04C153.915 24.376 153.555 24.632 153.123 24.808C152.699 24.984 152.223 25.072 151.695 25.072C151.023 25.072 150.427 24.936 149.907 24.664C149.387 24.384 148.983 23.996 148.695 23.5C148.415 23.004 148.275 22.444 148.275 21.82C148.275 21.204 148.411 20.648 148.683 20.152C148.963 19.656 149.343 19.272 149.823 19C150.311 18.72 150.859 18.58 151.467 18.58C152.075 18.58 152.615 18.72 153.087 19C153.567 19.272 153.939 19.656 154.203 20.152C154.475 20.648 154.611 21.216 154.611 21.856ZM151.467 19.552C150.915 19.552 150.451 19.72 150.075 20.056C149.707 20.392 149.491 20.832 149.427 21.376H153.507C153.443 20.84 153.223 20.404 152.847 20.068C152.479 19.724 152.019 19.552 151.467 19.552Z" fill="#1E376A"/>
<path d="M158.035 25.072C157.515 25.072 157.015 25.004 156.535 24.868C156.055 24.724 155.679 24.544 155.407 24.328L155.887 23.416C156.167 23.616 156.507 23.776 156.907 23.896C157.307 24.016 157.711 24.076 158.119 24.076C159.127 24.076 159.631 23.788 159.631 23.212C159.631 23.02 159.563 22.868 159.427 22.756C159.291 22.644 159.119 22.564 158.911 22.516C158.711 22.46 158.423 22.4 158.047 22.336C157.535 22.256 157.115 22.164 156.787 22.06C156.467 21.956 156.191 21.78 155.959 21.532C155.727 21.284 155.611 20.936 155.611 20.488C155.611 19.912 155.851 19.452 156.331 19.108C156.811 18.756 157.455 18.58 158.263 18.58C158.687 18.58 159.111 18.632 159.535 18.736C159.959 18.84 160.307 18.98 160.579 19.156L160.087 20.068C159.567 19.732 158.955 19.564 158.251 19.564C157.763 19.564 157.391 19.644 157.135 19.804C156.879 19.964 156.751 20.176 156.751 20.44C156.751 20.648 156.823 20.812 156.967 20.932C157.111 21.052 157.287 21.14 157.495 21.196C157.711 21.252 158.011 21.316 158.395 21.388C158.907 21.476 159.319 21.572 159.631 21.676C159.951 21.772 160.223 21.94 160.447 22.18C160.671 22.42 160.783 22.756 160.783 23.188C160.783 23.764 160.535 24.224 160.039 24.568C159.551 24.904 158.883 25.072 158.035 25.072Z" fill="#1E376A"/>
<path d="M164.047 25.072C163.527 25.072 163.027 25.004 162.547 24.868C162.067 24.724 161.691 24.544 161.419 24.328L161.899 23.416C162.179 23.616 162.519 23.776 162.919 23.896C163.319 24.016 163.723 24.076 164.131 24.076C165.139 24.076 165.643 23.788 165.643 23.212C165.643 23.02 165.575 22.868 165.439 22.756C165.303 22.644 165.131 22.564 164.923 22.516C164.723 22.46 164.435 22.4 164.059 22.336C163.547 22.256 163.127 22.164 162.799 22.06C162.479 21.956 162.203 21.78 161.971 21.532C161.739 21.284 161.623 20.936 161.623 20.488C161.623 19.912 161.863 19.452 162.343 19.108C162.823 18.756 163.467 18.58 164.275 18.58C164.699 18.58 165.123 18.632 165.547 18.736C165.971 18.84 166.319 18.98 166.591 19.156L166.099 20.068C165.579 19.732 164.967 19.564 164.263 19.564C163.775 19.564 163.403 19.644 163.147 19.804C162.891 19.964 162.763 20.176 162.763 20.44C162.763 20.648 162.835 20.812 162.979 20.932C163.123 21.052 163.299 21.14 163.507 21.196C163.723 21.252 164.023 21.316 164.407 21.388C164.919 21.476 165.331 21.572 165.643 21.676C165.963 21.772 166.235 21.94 166.459 22.18C166.683 22.42 166.795 22.756 166.795 23.188C166.795 23.764 166.547 24.224 166.051 24.568C165.563 24.904 164.895 25.072 164.047 25.072Z" fill="#1E376A"/>
<path d="M176.977 22.9H172.513L171.589 25H170.353L174.157 16.6H175.345L179.161 25H177.901L176.977 22.9ZM176.557 21.94L174.745 17.824L172.933 21.94H176.557Z" fill="#1E376A"/>
<path d="M182.959 25.072C182.311 25.072 181.731 24.932 181.219 24.652C180.715 24.372 180.319 23.988 180.031 23.5C179.743 23.004 179.599 22.444 179.599 21.82C179.599 21.196 179.743 20.64 180.031 20.152C180.319 19.656 180.715 19.272 181.219 19C181.731 18.72 182.311 18.58 182.959 18.58C183.535 18.58 184.047 18.696 184.495 18.928C184.951 19.16 185.303 19.496 185.551 19.936L184.675 20.5C184.475 20.196 184.227 19.968 183.931 19.816C183.635 19.664 183.307 19.588 182.947 19.588C182.531 19.588 182.155 19.68 181.819 19.864C181.491 20.048 181.231 20.312 181.039 20.656C180.855 20.992 180.763 21.38 180.763 21.82C180.763 22.268 180.855 22.664 181.039 23.008C181.231 23.344 181.491 23.604 181.819 23.788C182.155 23.972 182.531 24.064 182.947 24.064C183.307 24.064 183.635 23.988 183.931 23.836C184.227 23.684 184.475 23.456 184.675 23.152L185.551 23.704C185.303 24.144 184.951 24.484 184.495 24.724C184.047 24.956 183.535 25.072 182.959 25.072Z" fill="#1E376A"/>
<path d="M189.359 18.58C190.239 18.58 190.911 18.796 191.375 19.228C191.847 19.66 192.083 20.304 192.083 21.16V25H190.991V24.16C190.799 24.456 190.523 24.684 190.163 24.844C189.811 24.996 189.391 25.072 188.903 25.072C188.191 25.072 187.619 24.9 187.187 24.556C186.763 24.212 186.551 23.76 186.551 23.2C186.551 22.64 186.755 22.192 187.163 21.856C187.571 21.512 188.219 21.34 189.107 21.34H190.931V21.112C190.931 20.616 190.787 20.236 190.499 19.972C190.211 19.708 189.787 19.576 189.227 19.576C188.851 19.576 188.483 19.64 188.123 19.768C187.763 19.888 187.459 20.052 187.211 20.26L186.731 19.396C187.059 19.132 187.451 18.932 187.907 18.796C188.363 18.652 188.847 18.58 189.359 18.58ZM189.095 24.184C189.535 24.184 189.915 24.088 190.235 23.896C190.555 23.696 190.787 23.416 190.931 23.056V22.168H189.155C188.179 22.168 187.691 22.496 187.691 23.152C187.691 23.472 187.815 23.724 188.063 23.908C188.311 24.092 188.655 24.184 189.095 24.184Z" fill="#1E376A"/>
<path d="M200.25 16.096V25H199.146V23.992C198.89 24.344 198.566 24.612 198.174 24.796C197.782 24.98 197.35 25.072 196.878 25.072C196.262 25.072 195.71 24.936 195.222 24.664C194.734 24.392 194.35 24.012 194.07 23.524C193.798 23.028 193.662 22.46 193.662 21.82C193.662 21.18 193.798 20.616 194.07 20.128C194.35 19.64 194.734 19.26 195.222 18.988C195.71 18.716 196.262 18.58 196.878 18.58C197.334 18.58 197.754 18.668 198.138 18.844C198.522 19.012 198.842 19.264 199.098 19.6V16.096H200.25ZM196.974 24.064C197.374 24.064 197.738 23.972 198.066 23.788C198.394 23.596 198.65 23.332 198.834 22.996C199.018 22.652 199.11 22.26 199.11 21.82C199.11 21.38 199.018 20.992 198.834 20.656C198.65 20.312 198.394 20.048 198.066 19.864C197.738 19.68 197.374 19.588 196.974 19.588C196.566 19.588 196.198 19.68 195.87 19.864C195.55 20.048 195.294 20.312 195.102 20.656C194.918 20.992 194.826 21.38 194.826 21.82C194.826 22.26 194.918 22.652 195.102 22.996C195.294 23.332 195.55 23.596 195.87 23.788C196.198 23.972 196.566 24.064 196.974 24.064Z" fill="#1E376A"/>
<path d="M208.178 21.856C208.178 21.944 208.17 22.06 208.154 22.204H202.994C203.066 22.764 203.31 23.216 203.726 23.56C204.15 23.896 204.674 24.064 205.298 24.064C206.058 24.064 206.67 23.808 207.134 23.296L207.77 24.04C207.482 24.376 207.122 24.632 206.69 24.808C206.266 24.984 205.79 25.072 205.262 25.072C204.59 25.072 203.994 24.936 203.474 24.664C202.954 24.384 202.55 23.996 202.262 23.5C201.982 23.004 201.842 22.444 201.842 21.82C201.842 21.204 201.978 20.648 202.25 20.152C202.53 19.656 202.91 19.272 203.39 19C203.878 18.72 204.426 18.58 205.034 18.58C205.642 18.58 206.182 18.72 206.654 19C207.134 19.272 207.506 19.656 207.77 20.152C208.042 20.648 208.178 21.216 208.178 21.856ZM205.034 19.552C204.482 19.552 204.018 19.72 203.642 20.056C203.274 20.392 203.058 20.832 202.994 21.376H207.074C207.01 20.84 206.79 20.404 206.414 20.068C206.046 19.724 205.586 19.552 205.034 19.552Z" fill="#1E376A"/>
<path d="M217.733 18.58C218.533 18.58 219.165 18.812 219.629 19.276C220.101 19.74 220.337 20.428 220.337 21.34V25H219.185V21.472C219.185 20.856 219.041 20.392 218.753 20.08C218.473 19.768 218.069 19.612 217.541 19.612C216.957 19.612 216.493 19.796 216.149 20.164C215.805 20.524 215.633 21.044 215.633 21.724V25H214.481V21.472C214.481 20.856 214.337 20.392 214.049 20.08C213.769 19.768 213.365 19.612 212.837 19.612C212.253 19.612 211.789 19.796 211.445 20.164C211.101 20.524 210.929 21.044 210.929 21.724V25H209.777V18.64H210.881V19.588C211.113 19.26 211.417 19.012 211.793 18.844C212.169 18.668 212.597 18.58 213.077 18.58C213.573 18.58 214.013 18.68 214.397 18.88C214.781 19.08 215.077 19.372 215.285 19.756C215.525 19.388 215.857 19.1 216.281 18.892C216.713 18.684 217.197 18.58 217.733 18.58Z" fill="#1E376A"/>
<path d="M227.968 18.64L224.884 25.636C224.612 26.284 224.292 26.74 223.924 27.004C223.564 27.268 223.128 27.4 222.616 27.4C222.304 27.4 222 27.348 221.704 27.244C221.416 27.148 221.176 27.004 220.984 26.812L221.476 25.948C221.804 26.26 222.184 26.416 222.616 26.416C222.896 26.416 223.128 26.34 223.312 26.188C223.504 26.044 223.676 25.792 223.828 25.432L224.032 24.988L221.224 18.64H222.424L224.644 23.728L226.84 18.64H227.968Z" fill="#1E376A"/>
<path d="M122.05 10L122.038 3.88002L119.002 8.98002H118.45L115.414 3.91602V10H114.262V1.60002H115.246L118.75 7.50402L122.206 1.60002H123.19L123.202 10H122.05Z" stroke="black" stroke-width="2" mask="url(#path-1-inside-1_1802_1014)"/>
<path d="M128.279 10.072C127.647 10.072 127.079 9.93202 126.575 9.65202C126.071 9.37202 125.675 8.98802 125.387 8.50002C125.107 8.00402 124.967 7.44402 124.967 6.82002C124.967 6.19602 125.107 5.64002 125.387 5.15202C125.675 4.65602 126.071 4.27202 126.575 4.00002C127.079 3.72002 127.647 3.58002 128.279 3.58002C128.911 3.58002 129.475 3.72002 129.971 4.00002C130.475 4.27202 130.867 4.65602 131.147 5.15202C131.435 5.64002 131.579 6.19602 131.579 6.82002C131.579 7.44402 131.435 8.00402 131.147 8.50002C130.867 8.98802 130.475 9.37202 129.971 9.65202C129.475 9.93202 128.911 10.072 128.279 10.072ZM128.279 9.06402C128.687 9.06402 129.051 8.97202 129.371 8.78802C129.699 8.59602 129.955 8.33202 130.139 7.99602C130.323 7.65202 130.415 7.26002 130.415 6.82002C130.415 6.38002 130.323 5.99202 130.139 5.65602C129.955 5.31202 129.699 5.04802 129.371 4.86402C129.051 4.68002 128.687 4.58802 128.279 4.58802C127.871 4.58802 127.503 4.68002 127.175 4.86402C126.855 5.04802 126.599 5.31202 126.407 5.65602C126.223 5.99202 126.131 6.38002 126.131 6.82002C126.131 7.26002 126.223 7.65202 126.407 7.99602C126.599 8.33202 126.855 8.59602 127.175 8.78802C127.503 8.97202 127.871 9.06402 128.279 9.06402Z" stroke="black" stroke-width="2" mask="url(#path-1-inside-1_1802_1014)"/>
<path d="M136.544 3.58002C137.16 3.58002 137.712 3.71602 138.2 3.98802C138.688 4.26002 139.068 4.64002 139.34 5.12802C139.62 5.61602 139.76 6.18002 139.76 6.82002C139.76 7.46002 139.62 8.02802 139.34 8.52402C139.068 9.01202 138.688 9.39202 138.2 9.66402C137.712 9.93602 137.16 10.072 136.544 10.072C136.072 10.072 135.64 9.98002 135.248 9.79602C134.856 9.61202 134.532 9.34402 134.276 8.99202V10H133.172V1.09602H134.324V4.60002C134.58 4.26402 134.9 4.01202 135.284 3.84402C135.668 3.66802 136.088 3.58002 136.544 3.58002ZM136.448 9.06402C136.856 9.06402 137.22 8.97202 137.54 8.78802C137.868 8.59602 138.124 8.33202 138.308 7.99602C138.5 7.65202 138.596 7.26002 138.596 6.82002C138.596 6.38002 138.5 5.99202 138.308 5.65602C138.124 5.31202 137.868 5.04802 137.54 4.86402C137.22 4.68002 136.856 4.58802 136.448 4.58802C136.048 4.58802 135.684 4.68002 135.356 4.86402C135.028 5.04802 134.772 5.31202 134.588 5.65602C134.404 5.99202 134.312 6.38002 134.312 6.82002C134.312 7.26002 134.404 7.65202 134.588 7.99602C134.772 8.33202 135.028 8.59602 135.356 8.78802C135.684 8.97202 136.048 9.06402 136.448 9.06402Z" stroke="black" stroke-width="2" mask="url(#path-1-inside-1_1802_1014)"/>
<path d="M141.352 3.64002H142.504V10H141.352V3.64002ZM141.928 2.41602C141.704 2.41602 141.516 2.34402 141.364 2.20002C141.22 2.05602 141.148 1.88002 141.148 1.67202C141.148 1.46402 141.22 1.28802 141.364 1.14402C141.516 0.992016 141.704 0.916016 141.928 0.916016C142.152 0.916016 142.336 0.988016 142.48 1.13202C142.632 1.26802 142.708 1.44002 142.708 1.64802C142.708 1.86402 142.632 2.04802 142.48 2.20002C142.336 2.34402 142.152 2.41602 141.928 2.41602Z" stroke="black" stroke-width="2" mask="url(#path-1-inside-1_1802_1014)"/>
<path d="M144.703 1.09602H145.855V10H144.703V1.09602Z" stroke="black" stroke-width="2" mask="url(#path-1-inside-1_1802_1014)"/>
<path d="M153.803 6.85602C153.803 6.94402 153.795 7.06002 153.779 7.20402H148.619C148.691 7.76402 148.935 8.21602 149.351 8.56002C149.775 8.89602 150.299 9.06402 150.923 9.06402C151.683 9.06402 152.295 8.80802 152.759 8.29602L153.395 9.04002C153.107 9.37602 152.747 9.63202 152.315 9.80802C151.891 9.98402 151.415 10.072 150.887 10.072C150.215 10.072 149.619 9.93602 149.099 9.66402C148.579 9.38402 148.175 8.99602 147.887 8.50002C147.607 8.00402 147.467 7.44402 147.467 6.82002C147.467 6.20402 147.603 5.64802 147.875 5.15202C148.155 4.65602 148.535 4.27202 149.015 4.00002C149.503 3.72002 150.051 3.58002 150.659 3.58002C151.267 3.58002 151.807 3.72002 152.279 4.00002C152.759 4.27202 153.131 4.65602 153.395 5.15202C153.667 5.64802 153.803 6.21602 153.803 6.85602ZM150.659 4.55202C150.107 4.55202 149.643 4.72002 149.267 5.05602C148.899 5.39202 148.683 5.83202 148.619 6.37602H152.699C152.635 5.84002 152.415 5.40402 152.039 5.06802C151.671 4.72402 151.211 4.55202 150.659 4.55202Z" stroke="black" stroke-width="2" mask="url(#path-1-inside-1_1802_1014)"/>
<path d="M166.581 10L166.569 3.88002L163.533 8.98002H162.981L159.945 3.91602V10H158.793V1.60002H159.777L163.281 7.50402L166.737 1.60002H167.721L167.733 10H166.581Z" stroke="black" stroke-width="2" mask="url(#path-1-inside-1_1802_1014)"/>
<path d="M172.402 3.58002C173.282 3.58002 173.954 3.79602 174.418 4.22802C174.89 4.66002 175.126 5.30402 175.126 6.16002V10H174.034V9.16002C173.842 9.45602 173.566 9.68402 173.206 9.84402C172.854 9.99602 172.434 10.072 171.946 10.072C171.234 10.072 170.662 9.90002 170.23 9.55602C169.806 9.21202 169.594 8.76002 169.594 8.20002C169.594 7.64002 169.798 7.19202 170.206 6.85602C170.614 6.51202 171.262 6.34002 172.15 6.34002H173.974V6.11202C173.974 5.61602 173.83 5.23602 173.542 4.97202C173.254 4.70802 172.83 4.57602 172.27 4.57602C171.894 4.57602 171.526 4.64002 171.166 4.76802C170.806 4.88802 170.502 5.05202 170.254 5.26002L169.774 4.39602C170.102 4.13202 170.494 3.93202 170.95 3.79602C171.406 3.65202 171.89 3.58002 172.402 3.58002ZM172.138 9.18402C172.578 9.18402 172.958 9.08802 173.278 8.89602C173.598 8.69602 173.83 8.41602 173.974 8.05602V7.16802H172.198C171.222 7.16802 170.734 7.49602 170.734 8.15202C170.734 8.47202 170.858 8.72402 171.106 8.90802C171.354 9.09202 171.698 9.18402 172.138 9.18402Z" stroke="black" stroke-width="2" mask="url(#path-1-inside-1_1802_1014)"/>
<path d="M178.362 4.70802C178.562 4.34002 178.858 4.06002 179.25 3.86802C179.642 3.67602 180.118 3.58002 180.678 3.58002V4.69602C180.614 4.68802 180.526 4.68402 180.414 4.68402C179.79 4.68402 179.298 4.87202 178.938 5.24802C178.586 5.61602 178.41 6.14402 178.41 6.83202V10H177.258V3.64002H178.362V4.70802Z" stroke="black" stroke-width="2" mask="url(#path-1-inside-1_1802_1014)"/>
<path d="M184.57 7.03602L183.25 8.26002V10H182.098V1.09602H183.25V6.80802L186.718 3.64002H188.11L185.434 6.26802L188.374 10H186.958L184.57 7.03602Z" stroke="black" stroke-width="2" mask="url(#path-1-inside-1_1802_1014)"/>
<path d="M194.971 6.85602C194.971 6.94402 194.963 7.06002 194.947 7.20402H189.787C189.859 7.76402 190.103 8.21602 190.519 8.56002C190.943 8.89602 191.467 9.06402 192.091 9.06402C192.851 9.06402 193.463 8.80802 193.927 8.29602L194.563 9.04002C194.275 9.37602 193.915 9.63202 193.483 9.80802C193.059 9.98402 192.583 10.072 192.055 10.072C191.383 10.072 190.787 9.93602 190.267 9.66402C189.747 9.38402 189.343 8.99602 189.055 8.50002C188.775 8.00402 188.635 7.44402 188.635 6.82002C188.635 6.20402 188.771 5.64802 189.043 5.15202C189.323 4.65602 189.703 4.27202 190.183 4.00002C190.671 3.72002 191.219 3.58002 191.827 3.58002C192.435 3.58002 192.975 3.72002 193.447 4.00002C193.927 4.27202 194.299 4.65602 194.563 5.15202C194.835 5.64802 194.971 6.21602 194.971 6.85602ZM191.827 4.55202C191.275 4.55202 190.811 4.72002 190.435 5.05602C190.067 5.39202 189.851 5.83202 189.787 6.37602H193.867C193.803 5.84002 193.583 5.40402 193.207 5.06802C192.839 4.72402 192.379 4.55202 191.827 4.55202Z" stroke="black" stroke-width="2" mask="url(#path-1-inside-1_1802_1014)"/>
<path d="M200.146 9.62802C199.978 9.77202 199.77 9.88402 199.522 9.96402C199.274 10.036 199.018 10.072 198.754 10.072C198.114 10.072 197.618 9.90002 197.266 9.55602C196.914 9.21202 196.738 8.72002 196.738 8.08002V4.58802H195.658V3.64002H196.738V2.24802H197.89V3.64002H199.714V4.58802H197.89V8.03202C197.89 8.37602 197.974 8.64002 198.142 8.82402C198.318 9.00802 198.566 9.10002 198.886 9.10002C199.238 9.10002 199.538 9.00002 199.786 8.80002L200.146 9.62802Z" stroke="black" stroke-width="2" mask="url(#path-1-inside-1_1802_1014)"/>
<path d="M201.539 3.64002H202.691V10H201.539V3.64002ZM202.115 2.41602C201.891 2.41602 201.703 2.34402 201.551 2.20002C201.407 2.05602 201.335 1.88002 201.335 1.67202C201.335 1.46402 201.407 1.28802 201.551 1.14402C201.703 0.992016 201.891 0.916016 202.115 0.916016C202.339 0.916016 202.523 0.988016 202.667 1.13202C202.819 1.26802 202.895 1.44002 202.895 1.64802C202.895 1.86402 202.819 2.04802 202.667 2.20002C202.523 2.34402 202.339 2.41602 202.115 2.41602Z" stroke="black" stroke-width="2" mask="url(#path-1-inside-1_1802_1014)"/>
<path d="M208.287 3.58002C209.095 3.58002 209.735 3.81602 210.207 4.28802C210.687 4.75202 210.927 5.43602 210.927 6.34002V10H209.775V6.47202C209.775 5.85602 209.627 5.39202 209.331 5.08002C209.035 4.76802 208.611 4.61202 208.059 4.61202C207.435 4.61202 206.943 4.79602 206.583 5.16402C206.223 5.52402 206.043 6.04402 206.043 6.72402V10H204.891V3.64002H205.995V4.60002C206.227 4.27202 206.539 4.02002 206.931 3.84402C207.331 3.66802 207.783 3.58002 208.287 3.58002Z" stroke="black" stroke-width="2" mask="url(#path-1-inside-1_1802_1014)"/>
<path d="M219.178 3.64002V9.13602C219.178 10.248 218.902 11.068 218.35 11.596C217.798 12.132 216.974 12.4 215.878 12.4C215.278 12.4 214.706 12.316 214.162 12.148C213.618 11.988 213.178 11.756 212.842 11.452L213.394 10.564C213.69 10.82 214.054 11.02 214.486 11.164C214.926 11.316 215.378 11.392 215.842 11.392C216.586 11.392 217.134 11.216 217.486 10.864C217.846 10.512 218.026 9.97602 218.026 9.25602V8.75202C217.754 9.08002 217.418 9.32802 217.018 9.49602C216.626 9.65602 216.198 9.73602 215.734 9.73602C215.126 9.73602 214.574 9.60802 214.078 9.35202C213.59 9.08802 213.206 8.72402 212.926 8.26002C212.646 7.78802 212.506 7.25202 212.506 6.65202C212.506 6.05202 212.646 5.52002 212.926 5.05602C213.206 4.58402 213.59 4.22002 214.078 3.96402C214.574 3.70802 215.126 3.58002 215.734 3.58002C216.214 3.58002 216.658 3.66802 217.066 3.84402C217.482 4.02002 217.822 4.28002 218.086 4.62402V3.64002H219.178ZM215.866 8.72802C216.282 8.72802 216.654 8.64002 216.982 8.46402C217.318 8.28802 217.578 8.04402 217.762 7.73202C217.954 7.41202 218.05 7.05202 218.05 6.65202C218.05 6.03602 217.846 5.54002 217.438 5.16402C217.03 4.78002 216.506 4.58802 215.866 4.58802C215.218 4.58802 214.69 4.78002 214.282 5.16402C213.874 5.54002 213.67 6.03602 213.67 6.65202C213.67 7.05202 213.762 7.41202 213.946 7.73202C214.138 8.04402 214.398 8.28802 214.726 8.46402C215.062 8.64002 215.442 8.72802 215.866 8.72802Z" stroke="black" stroke-width="2" mask="url(#path-1-inside-1_1802_1014)"/>
<path d="M226.918 3.58002C227.798 3.58002 228.47 3.79602 228.934 4.22802C229.406 4.66002 229.642 5.30402 229.642 6.16002V10H228.55V9.16002C228.358 9.45602 228.082 9.68402 227.722 9.84402C227.37 9.99602 226.95 10.072 226.462 10.072C225.75 10.072 225.178 9.90002 224.746 9.55602C224.322 9.21202 224.11 8.76002 224.11 8.20002C224.11 7.64002 224.314 7.19202 224.722 6.85602C225.13 6.51202 225.778 6.34002 226.666 6.34002H228.49V6.11202C228.49 5.61602 228.346 5.23602 228.058 4.97202C227.77 4.70802 227.346 4.57602 226.786 4.57602C226.41 4.57602 226.042 4.64002 225.682 4.76802C225.322 4.88802 225.018 5.05202 224.77 5.26002L224.29 4.39602C224.618 4.13202 225.01 3.93202 225.466 3.79602C225.922 3.65202 226.406 3.58002 226.918 3.58002ZM226.654 9.18402C227.094 9.18402 227.474 9.08802 227.794 8.89602C228.114 8.69602 228.346 8.41602 228.49 8.05602V7.16802H226.714C225.738 7.16802 225.25 7.49602 225.25 8.15202C225.25 8.47202 225.374 8.72402 225.622 8.90802C225.87 9.09202 226.214 9.18402 226.654 9.18402Z" stroke="black" stroke-width="2" mask="url(#path-1-inside-1_1802_1014)"/>
<path d="M235.169 3.58002C235.977 3.58002 236.617 3.81602 237.089 4.28802C237.569 4.75202 237.809 5.43602 237.809 6.34002V10H236.657V6.47202C236.657 5.85602 236.509 5.39202 236.213 5.08002C235.917 4.76802 235.493 4.61202 234.941 4.61202C234.317 4.61202 233.825 4.79602 233.465 5.16402C233.105 5.52402 232.925 6.04402 232.925 6.72402V10H231.773V3.64002H232.877V4.60002C233.109 4.27202 233.421 4.02002 233.813 3.84402C234.213 3.66802 234.665 3.58002 235.169 3.58002Z" stroke="black" stroke-width="2" mask="url(#path-1-inside-1_1802_1014)"/>
<path d="M245.977 1.09602V10H244.873V8.99202C244.617 9.34402 244.293 9.61202 243.901 9.79602C243.509 9.98002 243.077 10.072 242.605 10.072C241.989 10.072 241.437 9.93602 240.949 9.66402C240.461 9.39202 240.077 9.01202 239.797 8.52402C239.525 8.02802 239.389 7.46002 239.389 6.82002C239.389 6.18002 239.525 5.61602 239.797 5.12802C240.077 4.64002 240.461 4.26002 240.949 3.98802C241.437 3.71602 241.989 3.58002 242.605 3.58002C243.061 3.58002 243.481 3.66802 243.865 3.84402C244.249 4.01202 244.569 4.26402 244.825 4.60002V1.09602H245.977ZM242.701 9.06402C243.101 9.06402 243.465 8.97202 243.793 8.78802C244.121 8.59602 244.377 8.33202 244.561 7.99602C244.745 7.65202 244.837 7.26002 244.837 6.82002C244.837 6.38002 244.745 5.99202 244.561 5.65602C244.377 5.31202 244.121 5.04802 243.793 4.86402C243.465 4.68002 243.101 4.58802 242.701 4.58802C242.293 4.58802 241.925 4.68002 241.597 4.86402C241.277 5.04802 241.021 5.31202 240.829 5.65602C240.645 5.99202 240.553 6.38002 240.553 6.82002C240.553 7.26002 240.645 7.65202 240.829 7.99602C241.021 8.33202 241.277 8.59602 241.597 8.78802C241.925 8.97202 242.293 9.06402 242.701 9.06402Z" stroke="black" stroke-width="2" mask="url(#path-1-inside-1_1802_1014)"/>
<path d="M119.914 20.644C120.402 20.78 120.786 21.028 121.066 21.388C121.346 21.74 121.486 22.188 121.486 22.732C121.486 23.46 121.21 24.02 120.658 24.412C120.114 24.804 119.318 25 118.27 25H114.262V16.6H118.03C118.99 16.6 119.73 16.792 120.25 17.176C120.778 17.56 121.042 18.092 121.042 18.772C121.042 19.212 120.938 19.592 120.73 19.912C120.53 20.232 120.258 20.476 119.914 20.644ZM115.462 17.572V20.26H117.922C118.538 20.26 119.01 20.148 119.338 19.924C119.674 19.692 119.842 19.356 119.842 18.916C119.842 18.476 119.674 18.144 119.338 17.92C119.01 17.688 118.538 17.572 117.922 17.572H115.462ZM118.222 24.028C118.902 24.028 119.414 23.916 119.758 23.692C120.102 23.468 120.274 23.116 120.274 22.636C120.274 21.7 119.59 21.232 118.222 21.232H115.462V24.028H118.222Z" stroke="black" stroke-width="2" mask="url(#path-1-inside-1_1802_1014)"/>
<path d="M129.104 18.64V25H128.012V24.04C127.78 24.368 127.472 24.624 127.088 24.808C126.712 24.984 126.3 25.072 125.852 25.072C125.004 25.072 124.336 24.84 123.848 24.376C123.36 23.904 123.116 23.212 123.116 22.3V18.64H124.268V22.168C124.268 22.784 124.416 23.252 124.712 23.572C125.008 23.884 125.432 24.04 125.984 24.04C126.592 24.04 127.072 23.856 127.424 23.488C127.776 23.12 127.952 22.6 127.952 21.928V18.64H129.104Z" stroke="black" stroke-width="2" mask="url(#path-1-inside-1_1802_1014)"/>
<path d="M133.121 25.072C132.601 25.072 132.101 25.004 131.621 24.868C131.141 24.724 130.765 24.544 130.493 24.328L130.973 23.416C131.253 23.616 131.593 23.776 131.993 23.896C132.393 24.016 132.797 24.076 133.205 24.076C134.213 24.076 134.717 23.788 134.717 23.212C134.717 23.02 134.649 22.868 134.513 22.756C134.377 22.644 134.205 22.564 133.997 22.516C133.797 22.46 133.509 22.4 133.133 22.336C132.621 22.256 132.201 22.164 131.873 22.06C131.553 21.956 131.277 21.78 131.045 21.532C130.813 21.284 130.697 20.936 130.697 20.488C130.697 19.912 130.937 19.452 131.417 19.108C131.897 18.756 132.541 18.58 133.349 18.58C133.773 18.58 134.197 18.632 134.621 18.736C135.045 18.84 135.393 18.98 135.665 19.156L135.173 20.068C134.653 19.732 134.041 19.564 133.337 19.564C132.849 19.564 132.477 19.644 132.221 19.804C131.965 19.964 131.837 20.176 131.837 20.44C131.837 20.648 131.909 20.812 132.053 20.932C132.197 21.052 132.373 21.14 132.581 21.196C132.797 21.252 133.097 21.316 133.481 21.388C133.993 21.476 134.405 21.572 134.717 21.676C135.037 21.772 135.309 21.94 135.533 22.18C135.757 22.42 135.869 22.756 135.869 23.188C135.869 23.764 135.621 24.224 135.125 24.568C134.637 24.904 133.969 25.072 133.121 25.072Z" stroke="black" stroke-width="2" mask="url(#path-1-inside-1_1802_1014)"/>
<path d="M137.309 18.64H138.461V25H137.309V18.64ZM137.885 17.416C137.661 17.416 137.473 17.344 137.321 17.2C137.177 17.056 137.105 16.88 137.105 16.672C137.105 16.464 137.177 16.288 137.321 16.144C137.473 15.992 137.661 15.916 137.885 15.916C138.109 15.916 138.293 15.988 138.437 16.132C138.589 16.268 138.665 16.44 138.665 16.648C138.665 16.864 138.589 17.048 138.437 17.2C138.293 17.344 138.109 17.416 137.885 17.416Z" stroke="black" stroke-width="2" mask="url(#path-1-inside-1_1802_1014)"/>
<path d="M144.056 18.58C144.864 18.58 145.504 18.816 145.976 19.288C146.456 19.752 146.696 20.436 146.696 21.34V25H145.544V21.472C145.544 20.856 145.396 20.392 145.1 20.08C144.804 19.768 144.38 19.612 143.828 19.612C143.204 19.612 142.712 19.796 142.352 20.164C141.992 20.524 141.812 21.044 141.812 21.724V25H140.66V18.64H141.764V19.6C141.996 19.272 142.308 19.02 142.7 18.844C143.1 18.668 143.552 18.58 144.056 18.58Z" stroke="black" stroke-width="2" mask="url(#path-1-inside-1_1802_1014)"/>
<path d="M154.611 21.856C154.611 21.944 154.603 22.06 154.587 22.204H149.427C149.499 22.764 149.743 23.216 150.159 23.56C150.583 23.896 151.107 24.064 151.731 24.064C152.491 24.064 153.103 23.808 153.567 23.296L154.203 24.04C153.915 24.376 153.555 24.632 153.123 24.808C152.699 24.984 152.223 25.072 151.695 25.072C151.023 25.072 150.427 24.936 149.907 24.664C149.387 24.384 148.983 23.996 148.695 23.5C148.415 23.004 148.275 22.444 148.275 21.82C148.275 21.204 148.411 20.648 148.683 20.152C148.963 19.656 149.343 19.272 149.823 19C150.311 18.72 150.859 18.58 151.467 18.58C152.075 18.58 152.615 18.72 153.087 19C153.567 19.272 153.939 19.656 154.203 20.152C154.475 20.648 154.611 21.216 154.611 21.856ZM151.467 19.552C150.915 19.552 150.451 19.72 150.075 20.056C149.707 20.392 149.491 20.832 149.427 21.376H153.507C153.443 20.84 153.223 20.404 152.847 20.068C152.479 19.724 152.019 19.552 151.467 19.552Z" stroke="black" stroke-width="2" mask="url(#path-1-inside-1_1802_1014)"/>
<path d="M158.035 25.072C157.515 25.072 157.015 25.004 156.535 24.868C156.055 24.724 155.679 24.544 155.407 24.328L155.887 23.416C156.167 23.616 156.507 23.776 156.907 23.896C157.307 24.016 157.711 24.076 158.119 24.076C159.127 24.076 159.631 23.788 159.631 23.212C159.631 23.02 159.563 22.868 159.427 22.756C159.291 22.644 159.119 22.564 158.911 22.516C158.711 22.46 158.423 22.4 158.047 22.336C157.535 22.256 157.115 22.164 156.787 22.06C156.467 21.956 156.191 21.78 155.959 21.532C155.727 21.284 155.611 20.936 155.611 20.488C155.611 19.912 155.851 19.452 156.331 19.108C156.811 18.756 157.455 18.58 158.263 18.58C158.687 18.58 159.111 18.632 159.535 18.736C159.959 18.84 160.307 18.98 160.579 19.156L160.087 20.068C159.567 19.732 158.955 19.564 158.251 19.564C157.763 19.564 157.391 19.644 157.135 19.804C156.879 19.964 156.751 20.176 156.751 20.44C156.751 20.648 156.823 20.812 156.967 20.932C157.111 21.052 157.287 21.14 157.495 21.196C157.711 21.252 158.011 21.316 158.395 21.388C158.907 21.476 159.319 21.572 159.631 21.676C159.951 21.772 160.223 21.94 160.447 22.18C160.671 22.42 160.783 22.756 160.783 23.188C160.783 23.764 160.535 24.224 160.039 24.568C159.551 24.904 158.883 25.072 158.035 25.072Z" stroke="black" stroke-width="2" mask="url(#path-1-inside-1_1802_1014)"/>
<path d="M164.047 25.072C163.527 25.072 163.027 25.004 162.547 24.868C162.067 24.724 161.691 24.544 161.419 24.328L161.899 23.416C162.179 23.616 162.519 23.776 162.919 23.896C163.319 24.016 163.723 24.076 164.131 24.076C165.139 24.076 165.643 23.788 165.643 23.212C165.643 23.02 165.575 22.868 165.439 22.756C165.303 22.644 165.131 22.564 164.923 22.516C164.723 22.46 164.435 22.4 164.059 22.336C163.547 22.256 163.127 22.164 162.799 22.06C162.479 21.956 162.203 21.78 161.971 21.532C161.739 21.284 161.623 20.936 161.623 20.488C161.623 19.912 161.863 19.452 162.343 19.108C162.823 18.756 163.467 18.58 164.275 18.58C164.699 18.58 165.123 18.632 165.547 18.736C165.971 18.84 166.319 18.98 166.591 19.156L166.099 20.068C165.579 19.732 164.967 19.564 164.263 19.564C163.775 19.564 163.403 19.644 163.147 19.804C162.891 19.964 162.763 20.176 162.763 20.44C162.763 20.648 162.835 20.812 162.979 20.932C163.123 21.052 163.299 21.14 163.507 21.196C163.723 21.252 164.023 21.316 164.407 21.388C164.919 21.476 165.331 21.572 165.643 21.676C165.963 21.772 166.235 21.94 166.459 22.18C166.683 22.42 166.795 22.756 166.795 23.188C166.795 23.764 166.547 24.224 166.051 24.568C165.563 24.904 164.895 25.072 164.047 25.072Z" stroke="black" stroke-width="2" mask="url(#path-1-inside-1_1802_1014)"/>
<path d="M176.977 22.9H172.513L171.589 25H170.353L174.157 16.6H175.345L179.161 25H177.901L176.977 22.9ZM176.557 21.94L174.745 17.824L172.933 21.94H176.557Z" stroke="black" stroke-width="2" mask="url(#path-1-inside-1_1802_1014)"/>
<path d="M182.959 25.072C182.311 25.072 181.731 24.932 181.219 24.652C180.715 24.372 180.319 23.988 180.031 23.5C179.743 23.004 179.599 22.444 179.599 21.82C179.599 21.196 179.743 20.64 180.031 20.152C180.319 19.656 180.715 19.272 181.219 19C181.731 18.72 182.311 18.58 182.959 18.58C183.535 18.58 184.047 18.696 184.495 18.928C184.951 19.16 185.303 19.496 185.551 19.936L184.675 20.5C184.475 20.196 184.227 19.968 183.931 19.816C183.635 19.664 183.307 19.588 182.947 19.588C182.531 19.588 182.155 19.68 181.819 19.864C181.491 20.048 181.231 20.312 181.039 20.656C180.855 20.992 180.763 21.38 180.763 21.82C180.763 22.268 180.855 22.664 181.039 23.008C181.231 23.344 181.491 23.604 181.819 23.788C182.155 23.972 182.531 24.064 182.947 24.064C183.307 24.064 183.635 23.988 183.931 23.836C184.227 23.684 184.475 23.456 184.675 23.152L185.551 23.704C185.303 24.144 184.951 24.484 184.495 24.724C184.047 24.956 183.535 25.072 182.959 25.072Z" stroke="black" stroke-width="2" mask="url(#path-1-inside-1_1802_1014)"/>
<path d="M189.359 18.58C190.239 18.58 190.911 18.796 191.375 19.228C191.847 19.66 192.083 20.304 192.083 21.16V25H190.991V24.16C190.799 24.456 190.523 24.684 190.163 24.844C189.811 24.996 189.391 25.072 188.903 25.072C188.191 25.072 187.619 24.9 187.187 24.556C186.763 24.212 186.551 23.76 186.551 23.2C186.551 22.64 186.755 22.192 187.163 21.856C187.571 21.512 188.219 21.34 189.107 21.34H190.931V21.112C190.931 20.616 190.787 20.236 190.499 19.972C190.211 19.708 189.787 19.576 189.227 19.576C188.851 19.576 188.483 19.64 188.123 19.768C187.763 19.888 187.459 20.052 187.211 20.26L186.731 19.396C187.059 19.132 187.451 18.932 187.907 18.796C188.363 18.652 188.847 18.58 189.359 18.58ZM189.095 24.184C189.535 24.184 189.915 24.088 190.235 23.896C190.555 23.696 190.787 23.416 190.931 23.056V22.168H189.155C188.179 22.168 187.691 22.496 187.691 23.152C187.691 23.472 187.815 23.724 188.063 23.908C188.311 24.092 188.655 24.184 189.095 24.184Z" stroke="black" stroke-width="2" mask="url(#path-1-inside-1_1802_1014)"/>
<path d="M200.25 16.096V25H199.146V23.992C198.89 24.344 198.566 24.612 198.174 24.796C197.782 24.98 197.35 25.072 196.878 25.072C196.262 25.072 195.71 24.936 195.222 24.664C194.734 24.392 194.35 24.012 194.07 23.524C193.798 23.028 193.662 22.46 193.662 21.82C193.662 21.18 193.798 20.616 194.07 20.128C194.35 19.64 194.734 19.26 195.222 18.988C195.71 18.716 196.262 18.58 196.878 18.58C197.334 18.58 197.754 18.668 198.138 18.844C198.522 19.012 198.842 19.264 199.098 19.6V16.096H200.25ZM196.974 24.064C197.374 24.064 197.738 23.972 198.066 23.788C198.394 23.596 198.65 23.332 198.834 22.996C199.018 22.652 199.11 22.26 199.11 21.82C199.11 21.38 199.018 20.992 198.834 20.656C198.65 20.312 198.394 20.048 198.066 19.864C197.738 19.68 197.374 19.588 196.974 19.588C196.566 19.588 196.198 19.68 195.87 19.864C195.55 20.048 195.294 20.312 195.102 20.656C194.918 20.992 194.826 21.38 194.826 21.82C194.826 22.26 194.918 22.652 195.102 22.996C195.294 23.332 195.55 23.596 195.87 23.788C196.198 23.972 196.566 24.064 196.974 24.064Z" stroke="black" stroke-width="2" mask="url(#path-1-inside-1_1802_1014)"/>
<path d="M208.178 21.856C208.178 21.944 208.17 22.06 208.154 22.204H202.994C203.066 22.764 203.31 23.216 203.726 23.56C204.15 23.896 204.674 24.064 205.298 24.064C206.058 24.064 206.67 23.808 207.134 23.296L207.77 24.04C207.482 24.376 207.122 24.632 206.69 24.808C206.266 24.984 205.79 25.072 205.262 25.072C204.59 25.072 203.994 24.936 203.474 24.664C202.954 24.384 202.55 23.996 202.262 23.5C201.982 23.004 201.842 22.444 201.842 21.82C201.842 21.204 201.978 20.648 202.25 20.152C202.53 19.656 202.91 19.272 203.39 19C203.878 18.72 204.426 18.58 205.034 18.58C205.642 18.58 206.182 18.72 206.654 19C207.134 19.272 207.506 19.656 207.77 20.152C208.042 20.648 208.178 21.216 208.178 21.856ZM205.034 19.552C204.482 19.552 204.018 19.72 203.642 20.056C203.274 20.392 203.058 20.832 202.994 21.376H207.074C207.01 20.84 206.79 20.404 206.414 20.068C206.046 19.724 205.586 19.552 205.034 19.552Z" stroke="black" stroke-width="2" mask="url(#path-1-inside-1_1802_1014)"/>
<path d="M217.733 18.58C218.533 18.58 219.165 18.812 219.629 19.276C220.101 19.74 220.337 20.428 220.337 21.34V25H219.185V21.472C219.185 20.856 219.041 20.392 218.753 20.08C218.473 19.768 218.069 19.612 217.541 19.612C216.957 19.612 216.493 19.796 216.149 20.164C215.805 20.524 215.633 21.044 215.633 21.724V25H214.481V21.472C214.481 20.856 214.337 20.392 214.049 20.08C213.769 19.768 213.365 19.612 212.837 19.612C212.253 19.612 211.789 19.796 211.445 20.164C211.101 20.524 210.929 21.044 210.929 21.724V25H209.777V18.64H210.881V19.588C211.113 19.26 211.417 19.012 211.793 18.844C212.169 18.668 212.597 18.58 213.077 18.58C213.573 18.58 214.013 18.68 214.397 18.88C214.781 19.08 215.077 19.372 215.285 19.756C215.525 19.388 215.857 19.1 216.281 18.892C216.713 18.684 217.197 18.58 217.733 18.58Z" stroke="black" stroke-width="2" mask="url(#path-1-inside-1_1802_1014)"/>
<path d="M227.968 18.64L224.884 25.636C224.612 26.284 224.292 26.74 223.924 27.004C223.564 27.268 223.128 27.4 222.616 27.4C222.304 27.4 222 27.348 221.704 27.244C221.416 27.148 221.176 27.004 220.984 26.812L221.476 25.948C221.804 26.26 222.184 26.416 222.616 26.416C222.896 26.416 223.128 26.34 223.312 26.188C223.504 26.044 223.676 25.792 223.828 25.432L224.032 24.988L221.224 18.64H222.424L224.644 23.728L226.84 18.64H227.968Z" stroke="black" stroke-width="2" mask="url(#path-1-inside-1_1802_1014)"/>
</g>
<path d="M38.7365 21.9044H43.5605L47.7365 11.6804L48.0965 25.0004H53.3165L52.3085 1.02441H46.9085L41.1485 16.2884L35.3885 1.02441H29.9885L28.9805 25.0004H34.2005L34.5605 11.6804L38.7365 21.9044Z" fill="#1E376A"/>
<path d="M74.8133 19.2764V16.9364C74.8133 14.7044 73.2653 12.9764 71.2853 12.5084C73.1933 11.6804 73.9492 10.4564 73.9492 8.72841V6.28041C73.9492 3.04041 72.1133 1.02441 67.1092 1.02441H57.6413V25.0004H67.8652C72.6533 25.0004 74.8133 22.6604 74.8133 19.2764ZM68.5493 9.16041C68.5493 10.1324 67.8293 10.8524 66.3893 10.8524H63.0413V5.38041H66.3893C67.9013 5.38041 68.5493 6.02841 68.5493 7.07241V9.16041ZM69.4132 18.5564C69.4132 20.2844 68.0813 20.6444 66.3893 20.6444H63.0413V15.0644H67.1453C68.5853 15.0644 69.4132 15.7484 69.4132 17.0804V18.5564Z" fill="#1E376A"/>
<path d="M90.7708 1.02441H83.5708L76.2628 25.0004H81.8788L83.1748 20.3204H91.2028L92.4988 25.0004H98.1148L90.7708 1.02441ZM87.1708 5.77641L89.9068 15.8204H84.3988L87.1708 5.77641Z" fill="#1E376A"/>
<path d="M10.7365 21.9044H15.5605L19.7365 11.6804L20.0965 25.0004H25.3165L24.3085 1.02441H18.9085L13.1485 16.2884L7.38847 1.02441H1.98847L0.980469 25.0004H6.20047L6.56047 11.6804L10.7365 21.9044Z" fill="url(#paint0_linear_1802_1014)"/>
<defs>
<filter id="filter0_d_1802_1014" x="110.262" y="0.916016" width="139.715" height="34.4844" filterUnits="userSpaceOnUse" color-interpolation-filters="sRGB">
<feFlood flood-opacity="0" result="BackgroundImageFix"/>
<feColorMatrix in="SourceAlpha" type="matrix" values="0 0 0 0 0 0 0 0 0 0 0 0 0 0 0 0 0 0 127 0" result="hardAlpha"/>
<feOffset dy="4"/>
<feGaussianBlur stdDeviation="2"/>
<feColorMatrix type="matrix" values="0 0 0 0 0 0 0 0 0 0 0 0 0 0 0 0 0 0 0.25 0"/>
<feBlend mode="normal" in2="BackgroundImageFix" result="effect1_dropShadow_1802_1014"/>
<feBlend mode="normal" in="SourceGraphic" in2="effect1_dropShadow_1802_1014" result="shape"/>
</filter>
<linearGradient id="paint0_linear_1802_1014" x1="9.80925" y1="1.84341" x2="13.1587" y2="31.5841" gradientUnits="userSpaceOnUse">
<stop offset="0.01" stop-color="#2BE9A3"/>
<stop offset="0.44" stop-color="#07CDBF"/>
<stop offset="0.53" stop-color="#00C7C5"/>
<stop offset="0.6" stop-color="#09C7CA"/>
<stop offset="0.73" stop-color="#21C9D8"/>
<stop offset="0.89" stop-color="#48CBEE"/>
<stop offset="1" stop-color="#66CCFF"/>
</linearGradient>
</defs>
</svg>
