<svg width="14" height="14" viewBox="0 0 14 14" fill="none" xmlns="http://www.w3.org/2000/svg">
<path fill-rule="evenodd" clip-rule="evenodd" d="M3.50195 0H2.91833C2.59641 0 2.33472 0.260834 2.33472 0.583618V1.75H1.75C0.784851 1.75 0 2.53485 0 3.5V12.25C0 13.2151 0.784851 14 1.75 14H12.25C13.2151 14 14 13.2151 14 12.25V3.5C14 2.53485 13.2151 1.75 12.25 1.75H11.6661V0.583618C11.6653 0.260834 11.4044 0 11.0825 0H10.4989C10.177 0 9.91528 0.260834 9.91528 0.583618V1.75H4.08557V0.583618C4.08557 0.260834 3.82388 0 3.50195 0ZM12.8336 12.25C12.8336 12.5719 12.5719 12.8336 12.25 12.8336H1.75C1.42807 12.8336 1.16638 12.5719 1.16638 12.25V5.85648H12.8328V12.25H12.8336Z" fill="white"/>
</svg>
