<svg width="10" height="14" viewBox="0 0 10 14" fill="none" xmlns="http://www.w3.org/2000/svg">
<path d="M4.91711 0C2.23384 0 0.0507812 2.18306 0.0507812 4.86633C0.0507812 8.23893 4.9219 14 4.9219 14C4.9219 14 9.78345 8.07307 9.78345 4.86633C9.78345 2.18306 7.60048 0 4.91711 0ZM6.38539 6.2912C5.98053 6.69597 5.44887 6.8984 4.91711 6.8984C4.38545 6.8984 3.85361 6.69597 3.44893 6.2912C2.63929 5.48165 2.63929 4.16437 3.44893 3.35474C3.84097 2.96252 4.36246 2.74651 4.91711 2.74651C5.47177 2.74651 5.99318 2.96261 6.38539 3.35474C7.19502 4.16437 7.19502 5.48165 6.38539 6.2912Z" fill="white"/>
</svg>
