<svg width="32" height="32" viewBox="0 0 32 32" fill="none" xmlns="http://www.w3.org/2000/svg">
<path d="M16 32C24.8366 32 32 24.8366 32 16C32 7.16344 24.8366 0 16 0C7.16344 0 0 7.16344 0 16C0 24.8366 7.16344 32 16 32Z" fill="#039BE5"/>
<path d="M7.31778 15.6536L22.7444 9.70561C23.4604 9.44694 24.0858 9.88028 23.8538 10.9629L23.8551 10.9616L21.2284 23.3363C21.0338 24.2136 20.5124 24.4269 19.7831 24.0136L15.7831 21.0656L13.8538 22.9243C13.6404 23.1376 13.4604 23.3176 13.0471 23.3176L13.3311 19.2469L20.7444 12.5496C21.0671 12.2656 20.6724 12.1056 20.2471 12.3883L11.0858 18.1563L7.13644 16.9243C6.27911 16.6523 6.26044 16.0669 7.31778 15.6536Z" fill="white"/>
</svg>
